<svg width="546" height="342" viewBox="0 0 546 342" fill="none" xmlns="http://www.w3.org/2000/svg">
<g clip-path="url(#clip0_207_167)">
<path d="M398.398 83.2883C398.398 116.1 346.751 212.865 317.139 265.65C315.13 269.231 312.195 272.214 308.636 274.292C305.077 276.369 301.024 277.464 296.895 277.464C292.767 277.464 288.714 276.369 285.155 274.292C281.596 272.214 278.661 269.231 276.652 265.65C247.04 212.865 195.393 116.1 195.393 83.2883C195.393 37.2894 240.837 0 296.895 0C352.954 0 398.398 37.2894 398.398 83.2883Z" fill="#72CFFF"/>
<path d="M297.372 137.236C327.902 137.236 352.651 112.659 352.651 82.3418C352.651 52.0244 327.902 27.4473 297.372 27.4473C266.843 27.4473 242.094 52.0244 242.094 82.3418C242.094 112.659 266.843 137.236 297.372 137.236Z" fill="#282C34"/>
<path d="M66.698 132.011C84.9839 132.011 99.8076 117.29 99.8076 99.1316C99.8076 80.9727 84.9839 66.252 66.698 66.252C48.4121 66.252 33.5884 80.9727 33.5884 99.1316C33.5884 117.29 48.4121 132.011 66.698 132.011Z" fill="#FF6584"/>
<path d="M296.896 342C341.159 342 377.042 339.249 377.042 335.856C377.042 332.463 341.159 329.712 296.896 329.712C252.632 329.712 216.749 332.463 216.749 335.856C216.749 339.249 252.632 342 296.896 342Z" fill="#72CFFF"/>
<path opacity="0.4" d="M59.9567 128.371C61.6418 118.059 54.5898 108.343 44.2056 106.669C33.8214 104.996 24.0373 111.999 22.3522 122.311C20.6671 132.623 27.719 142.339 38.1032 144.013C48.4874 145.686 58.2715 138.683 59.9567 128.371Z" fill="#72CFFF"/>
<path d="M486.804 222.919C336.799 167.078 153.846 221.518 48.2164 332.879C47.616 333.503 47.0156 334.137 46.4342 334.772H44.8235C45.3763 334.137 45.9481 333.503 46.5104 332.879C154.332 213.048 334.855 165.289 486.804 222.919Z" fill="#50545A"/>
<path d="M527.796 241.441C514.537 234.419 500.846 228.233 486.804 222.919C500.883 228.145 514.58 234.334 527.796 241.441Z" fill="#50545A"/>
<path opacity="0.4" d="M445.698 185.728C457.237 185.728 466.59 176.44 466.59 164.982C466.59 153.524 457.237 144.235 445.698 144.235C434.16 144.235 424.807 153.524 424.807 164.982C424.807 176.44 434.16 185.728 445.698 185.728Z" fill="#72CFFF"/>
<path d="M448.025 324.56C449.639 330.487 455.169 334.157 455.169 334.157C455.169 334.157 458.081 328.219 456.467 322.292C454.852 316.366 449.323 312.695 449.323 312.695C449.323 312.695 446.41 318.634 448.025 324.56Z" fill="#50545A"/>
<path d="M450.397 323.287C454.827 327.569 455.368 334.153 455.368 334.153C455.368 334.153 448.727 333.793 444.297 329.51C439.867 325.227 439.325 318.644 439.325 318.644C439.325 318.644 445.967 319.004 450.397 323.287Z" fill="#72CFFF"/>
<path d="M3.20236 242.156V251.299L2.74487 251.791V242.062C2.89737 242.09 3.0499 242.128 3.20236 242.156Z" fill="#50545A"/>
<path d="M32.5381 332.874C32.4047 333.092 32.2617 333.31 32.1188 333.528H2.74487V242.611L3.20236 242.156L7.10045 246.557V240.122H19.4905V260.546L32.0044 274.658L32.1188 274.79C32.2713 275.264 32.4142 275.737 32.5572 276.21C32.5582 276.217 32.5615 276.224 32.5667 276.229C34.4435 282.193 35.9835 288.257 37.1796 294.391C39.9054 308.863 39.4956 322.132 32.5381 332.874Z" fill="#CCCCCC"/>
<path d="M13.0586 292.411H5.17236V298.937H13.0586V292.411Z" fill="#50545A"/>
<path d="M13.0586 304.158H5.17236V310.684H13.0586V304.158Z" fill="#50545A"/>
<path d="M255.985 280.011L252.042 273.485L288.845 242.159C316.052 229.154 348.849 232.907 383.48 242.159V251.296L349.306 287.843L309.874 295.674L255.985 280.011Z" fill="#50545A"/>
<path d="M399.77 260.543C406.305 253.324 407.213 246.459 399.77 240.121H387.38V246.561L383.48 242.16L351.935 273.485L346.677 278.706L340.105 304.811L351.935 333.526H412.395V274.791L399.77 260.543Z" fill="#CCCCCC"/>
<path d="M252.042 273.485H351.934V333.526H252.042C239.957 320.542 246.236 296.876 252.042 273.485Z" fill="#F2F2F2"/>
<path d="M338.134 292.411H317.104V310.684H338.134V292.411Z" fill="#50545A"/>
<path d="M308.56 291.758H290.159V333.526H308.56V291.758Z" fill="#CCCCCC"/>
<path d="M269.129 298.285V291.759H261.244V298.285H268.472H269.129Z" fill="#50545A"/>
<path d="M268.472 303.505H261.244V310.032H269.129V303.505H268.472Z" fill="#50545A"/>
<path d="M282.273 291.758H274.387V298.285H282.273V291.758Z" fill="#50545A"/>
<path d="M282.273 303.505H274.387V310.032H282.273V303.505Z" fill="#50545A"/>
<path d="M380.194 298.938V292.411H372.307V298.938H379.536H380.194Z" fill="#50545A"/>
<path d="M379.536 304.158H372.307V310.684H380.194V304.158H379.536Z" fill="#50545A"/>
<path d="M393.337 292.411H385.451V298.937H393.337V292.411Z" fill="#50545A"/>
<path d="M393.337 304.158H385.451V310.684H393.337V304.158Z" fill="#50545A"/>
<path d="M78.1201 170.372L71.5486 165.15L108.351 132.519H201.671V161.235L141.21 201.698L78.1201 170.372Z" fill="#50545A"/>
<path d="M218.685 150.824V133.171H206.295V137.495L201.67 132.519L171.44 165.15L159.611 172.982L141.269 306.057L168.93 333.526H233.215C243.065 284.322 250.876 233.775 233.215 166.455L218.685 150.824Z" fill="#CCCCCC"/>
<path d="M71.5481 165.15H171.44V333.526H71.5481C60.6171 268.113 55.2785 207.453 71.5481 165.15Z" fill="#F2F2F2"/>
<path d="M128.723 292.411H110.322V333.526H128.723V292.411Z" fill="#CCCCCC"/>
<path d="M90.6064 304.158V297.633H82.7206V304.158H89.9497H90.6064Z" fill="#50545A"/>
<path d="M89.9497 309.379H82.7206V315.906H90.6064V309.379H89.9497Z" fill="#50545A"/>
<path d="M103.75 297.632H95.8639V304.158H103.75V297.632Z" fill="#50545A"/>
<path d="M143.839 309.379H136.61V315.906H144.495V309.379H143.839Z" fill="#50545A"/>
<path d="M157.639 297.632H149.753V304.158H157.639V297.632Z" fill="#50545A"/>
<path d="M157.639 309.379H149.753V315.905H157.639V309.379Z" fill="#50545A"/>
<path d="M199.699 173.634V167.108H191.813V173.634H199.042H199.699Z" fill="#50545A"/>
<path d="M199.042 178.856H191.813V185.382H199.699V178.856H199.042Z" fill="#50545A"/>
<path d="M212.843 167.108H204.956V173.634H212.843V167.108Z" fill="#50545A"/>
<path d="M212.843 178.855H204.956V185.381H212.843V178.855Z" fill="#50545A"/>
<path d="M199.699 210.182V203.655H191.813V210.182H199.042H199.699Z" fill="#50545A"/>
<path d="M199.042 215.402H191.813V221.928H199.699V215.402H199.042Z" fill="#50545A"/>
<path d="M212.843 203.655H204.956V210.181H212.843V203.655Z" fill="#50545A"/>
<path d="M212.843 215.402H204.956V221.928H212.843V215.402Z" fill="#50545A"/>
<path d="M199.699 246.728V240.201H191.813V246.728H199.042H199.699Z" fill="#50545A"/>
<path d="M199.042 251.949H191.813V258.475H199.699V251.949H199.042Z" fill="#50545A"/>
<path d="M212.843 240.201H204.956V246.728H212.843V240.201Z" fill="#50545A"/>
<path d="M212.843 251.948H204.956V258.475H212.843V251.948Z" fill="#50545A"/>
<path d="M199.699 283.275V276.748H191.813V283.275H199.042H199.699Z" fill="#50545A"/>
<path d="M199.042 288.496H191.813V295.021H199.699V288.496H199.042Z" fill="#50545A"/>
<path d="M212.843 276.748H204.956V283.274H212.843V276.748Z" fill="#50545A"/>
<path d="M212.843 288.495H204.956V295.021H212.843V288.495Z" fill="#50545A"/>
<path d="M82.7202 173.634H158.954V189.297C134.518 182.6 109.037 183.081 82.7202 189.297V173.634Z" fill="#50545A"/>
<path d="M82.7202 204.96C106.513 211.921 131.925 211.921 158.954 204.96V220.623H82.7202V204.96Z" fill="#50545A"/>
<path d="M82.7202 236.286H158.954V251.949C132.973 243.71 107.536 243.322 82.7202 251.949V236.286Z" fill="#50545A"/>
<path d="M82.7202 267.611C107.582 277.127 133.016 276.731 158.954 267.611V283.274H82.7202V267.611Z" fill="#50545A"/>
<path d="M492.437 240.4H546V266.03L541.215 267.517L525.299 272.45L500.328 266.706L475.386 260.966L462.215 257.936L455.638 255.52C461.109 248.065 471.059 242.203 492.437 240.4Z" fill="#50545A"/>
<path d="M546 255.52V333.527H455.638C455.61 333.479 455.591 333.435 455.562 333.387V333.383C455.541 333.328 455.515 333.276 455.486 333.225C454.075 330.405 452.811 327.593 451.693 324.788C442.21 301.053 443.239 277.944 455.638 255.52H546Z" fill="#F2F2F2"/>
<path d="M512.814 292.411H494.413V333.526H512.814V292.411Z" fill="#CCCCCC"/>
<path d="M474.697 304.158V297.633H466.811V304.158H474.04H474.697Z" fill="#50545A"/>
<path d="M474.04 309.379H466.811V315.906H474.697V309.379H474.04Z" fill="#50545A"/>
<path d="M487.841 297.632H479.955V304.158H487.841V297.632Z" fill="#50545A"/>
<path d="M487.841 309.379H479.955V315.905H487.841V309.379Z" fill="#50545A"/>
<path d="M528.586 304.158V297.633H520.7V304.158H527.93H528.586Z" fill="#50545A"/>
<path d="M527.93 309.379H520.7V315.906H528.586V309.379H527.93Z" fill="#50545A"/>
<path d="M541.73 297.632H533.844V304.158H541.73V297.632Z" fill="#50545A"/>
<path d="M541.73 309.379H533.844V315.905H541.73V309.379Z" fill="#50545A"/>
<path d="M475.389 210.114H486.717C497.89 210.114 508.605 214.521 516.505 222.367C524.406 230.212 528.844 240.853 528.844 251.949H475.389V210.114Z" fill="#50545A"/>
<path d="M132.28 96.5388H143.608C154.781 96.5388 165.497 100.946 173.397 108.792C181.298 116.638 185.736 127.278 185.736 138.374H132.28V96.5388Z" fill="#50545A"/>
<path d="M313.365 201.595H324.693C335.866 201.595 346.582 206.003 354.482 213.849C362.383 221.694 366.821 232.335 366.821 243.43H313.365V201.595Z" fill="#50545A"/>
<path d="M528.844 267.611H475.389V283.274H528.844V267.611Z" fill="#50545A"/>
<path d="M546 332.879H2.74512V334.772H546V332.879Z" fill="#50545A"/>
<path d="M52.849 258.104H50.9429V332.874H52.849V258.104Z" fill="#50545A"/>
<path d="M70.4407 267.633C70.562 293.778 52.0387 315.058 52.0387 315.058C52.0387 315.058 28.3173 293.496 33.1974 267.803C38.1054 241.964 53.4017 220.487 51.5993 220.378C51.5993 220.378 70.3193 241.487 70.4407 267.633Z" fill="#72CFFF"/>
<path d="M243.465 258.104H241.559V332.874H243.465V258.104Z" fill="#50545A"/>
<path d="M261.056 267.633C262.775 293.722 242.655 315.058 242.655 315.058C242.655 315.058 223.935 293.948 223.813 267.803C223.692 241.658 242.215 220.378 242.215 220.378C240.409 227.545 259.666 246.523 261.056 267.633Z" fill="#72CFFF"/>
<path d="M119.624 136.563L202.422 132.541L237.155 161.331L231.014 166.837L176.013 165.607L119.624 136.563Z" fill="#50545A"/>
<path d="M37.0081 270.172L32.5477 274.175L32.0044 274.658L30.8702 275.68L2.74487 275.055V242.062C1.82992 241.863 0.914956 241.674 0 241.494L2.27787 241.38L2.74487 241.768L7.10045 245.374L19.4905 255.653L33.3292 267.124L37.0081 270.172Z" fill="#50545A"/>
<path d="M300.709 245.406L383.507 241.384L418.24 270.174L412.099 275.679L357.098 274.45L300.709 245.406Z" fill="#50545A"/>
</g>
<defs>
<clipPath id="clip0_207_167">
<rect width="546" height="342" fill="white"/>
</clipPath>
</defs>
</svg>
