<svg width="1138" height="737" viewBox="0 0 1138 737" fill="none" xmlns="http://www.w3.org/2000/svg">
<g clip-path="url(#clip0_285_2)">
<path opacity="0.1" d="M1101.8 683.84C1077.46 704.04 1042.8 712.41 1009.3 717.68L1003.66 718.55C945.09 727.28 885.34 729.06 825.87 730.83C660 735.73 493.69 740.63 328.27 729.31C255.11 724.31 180.14 715.55 116.02 685.61L114.35 684.83L111.86 683.64C100.491 678.196 89.5993 671.807 79.3 664.54C60.98 651.48 45.87 635.54 37.88 616.63C25.36 586.97 31.97 553.63 46.28 524.63C60.59 495.63 82.08 469.5 100.62 442.19C106.06 434.19 111.22 425.89 116.02 417.38C146.02 364.02 160.9 302.25 129.45 250.82C125.299 244.263 120.816 237.921 116.02 231.82C108.35 221.82 100.55 211.82 95.28 200.75C82.98 174.99 85.63 146.02 90.11 118.5C96.11 81.91 107.16 42.5 141.49 19.64C177.16 -4.09999 227.79 -2.88999 272.06 5.64001C340.89 18.84 404.42 46.44 468.55 71.35C532.68 96.26 599.85 119.01 670.37 121.46C732.63 123.63 805.26 107.46 846.6 65.38C886.75 24.54 962.2 21.44 1016.6 46.11C1068.51 69.66 1102.08 119.48 1099.6 169.24C1096.44 231.34 1044.67 281.06 1003.7 333.93C996.89 342.72 990.36 351.61 984.42 360.65C965 390.18 951.27 425.65 964.64 457.53C972.14 475.38 986.45 489 1003.7 500.89C1042.35 527.52 1095.7 545.44 1119.7 582.72C1140.37 614.79 1132.71 658.2 1101.8 683.84Z" fill="#00B0FF"/>
<g opacity="0.2">
<path d="M249.71 648.4C250.03 649.05 250.33 649.7 250.59 650.34C244.19 651.127 237.807 651.713 231.44 652.1C228.547 653.223 225.366 653.374 222.38 652.53C220.49 652.59 218.59 652.62 216.71 652.65C216.66 651.777 216.66 650.903 216.71 650.03C217.1 643.97 219.88 638.8 224.71 636.35C229.54 633.9 235.36 634.72 240.45 637.97C244.411 640.56 247.608 644.16 249.71 648.4Z" fill="#3F3D56"/>
<path d="M237.54 624.38C239.704 628.57 240.715 633.26 240.47 637.97C240.08 643.97 237.3 649.18 232.47 651.63C232.13 651.8 231.8 651.95 231.47 652.1C228.577 653.223 225.397 653.374 222.41 652.53C220.406 651.992 218.497 651.149 216.75 650.03C212.842 647.4 209.672 643.814 207.542 639.613C205.412 635.413 204.392 630.736 204.58 626.03C204.97 620.03 207.74 614.8 212.58 612.35C217.42 609.9 223.23 610.72 228.32 613.98C232.262 616.567 235.444 620.156 237.54 624.38Z" fill="#3F3D56"/>
<path d="M220.318 627.584C228.61 623.383 230.873 611.179 225.374 600.326C219.875 589.473 208.696 584.08 200.405 588.281C192.113 592.482 189.849 604.686 195.348 615.539C200.847 626.393 212.027 631.785 220.318 627.584Z" fill="#3F3D56"/>
<path d="M208.156 603.568C216.447 599.367 218.711 587.163 213.212 576.31C207.713 565.457 196.534 560.064 188.242 564.265C179.951 568.466 177.687 580.67 183.186 591.523C188.685 602.377 199.864 607.769 208.156 603.568Z" fill="#3F3D56"/>
<path d="M195.979 579.543C204.27 575.342 206.534 563.138 201.035 552.285C195.536 541.432 184.357 536.039 176.065 540.24C167.774 544.441 165.51 556.645 171.009 567.498C176.508 578.351 187.687 583.744 195.979 579.543Z" fill="#3F3D56"/>
<path d="M46.5 423.99C43.1292 422.411 39.8685 420.607 36.74 418.59L72.91 392.11L30.4 414.11C21.7947 407.279 14.6742 398.763 9.47448 389.084C4.27478 379.405 1.10526 368.766 0.159981 357.82L72.45 358.51L-0.0200195 346.4C0.607807 335.355 3.50159 324.558 8.48129 314.68C13.461 304.802 20.4201 296.054 28.9256 288.981C37.4312 281.908 47.3012 276.661 57.9218 273.566C68.5423 270.471 79.6861 269.595 90.6598 270.991C101.634 272.388 112.203 276.028 121.709 281.684C131.216 287.341 139.457 294.893 145.92 303.871C152.382 312.849 156.928 323.061 159.275 333.872C161.622 344.683 161.719 355.86 159.56 366.71C164.819 369.167 169.798 372.184 174.41 375.71L136.68 428.22L182 382.22C191.574 391.613 198.655 403.244 202.605 416.061C206.554 428.878 207.247 442.478 204.62 455.63C218.337 462.012 229.982 472.124 238.223 484.812C246.464 497.499 250.969 512.25 251.222 527.376C251.475 542.503 247.467 557.396 239.656 570.353C231.844 583.309 220.545 593.806 207.049 600.643C193.553 607.481 178.406 610.383 163.338 609.018C148.271 607.652 133.892 602.075 121.845 592.923C109.798 583.771 100.569 571.415 95.2134 557.265C89.8579 543.116 88.5919 527.745 91.56 512.91C75.1672 505.284 61.8127 492.37 53.641 476.242C45.4692 460.115 42.9543 441.709 46.5 423.98V423.99Z" fill="#00B0FF"/>
<path opacity="0.1" d="M197.48 403.38C205.682 419.497 208.198 437.913 204.62 455.64C218.337 462.022 229.982 472.134 238.223 484.822C246.464 497.509 250.969 512.26 251.222 527.387C251.475 542.514 247.467 557.406 239.656 570.363C231.844 583.319 220.545 593.816 207.049 600.654C193.553 607.491 178.405 610.393 163.338 609.028C148.271 607.663 133.892 602.085 121.845 592.933C109.798 583.782 100.569 571.425 95.2134 557.275C89.8579 543.126 88.5918 527.755 91.5599 512.92C75.7199 505.57 193.39 395.31 197.48 403.38Z" fill="black"/>
</g>
<g opacity="0.2">
<path d="M1010.76 655.73C1010.61 656.38 1010.45 657.01 1010.26 657.63C1005.21 654.463 1000.29 651.153 995.51 647.7C992.779 646.811 990.413 645.055 988.77 642.7C987.38 641.64 986 640.56 984.64 639.48C985.109 638.822 985.624 638.197 986.18 637.61C989.99 633.49 995.01 631.41 999.91 632.48C1004.81 633.55 1008.49 637.54 1010.24 642.85C1011.56 647.02 1011.74 651.467 1010.76 655.73Z" fill="#3F3D56"/>
<path d="M1016.08 631.4C1015.19 635.671 1013.17 639.627 1010.24 642.86C1006.43 646.95 1001.42 649.04 996.51 647.96C996.17 647.89 995.85 647.8 995.51 647.7C992.779 646.811 990.413 645.055 988.77 642.7C987.644 641.15 986.77 639.432 986.18 637.61C984.919 633.437 984.746 629.012 985.678 624.754C986.609 620.495 988.613 616.546 991.5 613.28C995.31 609.17 1000.33 607.09 1005.23 608.16C1010.13 609.23 1013.81 613.21 1015.56 618.52C1016.88 622.69 1017.06 627.137 1016.08 631.4Z" fill="#3F3D56"/>
<path d="M1021.44 607.118C1023.85 596.128 1018.99 585.73 1010.6 583.893C1002.2 582.057 993.448 589.477 991.043 600.467C988.639 611.458 993.495 621.856 1001.89 623.692C1010.29 625.529 1019.04 618.108 1021.44 607.118Z" fill="#3F3D56"/>
<path d="M1026.75 582.791C1029.16 571.801 1024.3 561.403 1015.91 559.567C1007.51 557.73 998.757 565.15 996.352 576.141C993.948 587.131 998.805 597.529 1007.2 599.365C1015.59 601.202 1024.35 593.781 1026.75 582.791Z" fill="#3F3D56"/>
<path d="M1032.08 558.467C1034.49 547.477 1029.63 537.079 1021.24 535.242C1012.84 533.406 1004.09 540.826 1001.68 551.816C999.277 562.806 1004.13 573.204 1012.53 575.041C1020.92 576.877 1029.68 569.457 1032.08 558.467Z" fill="#3F3D56"/>
<path d="M996.33 376.2C994.827 373.104 993.544 369.906 992.49 366.63L1033.87 368.81L990.6 359.68C988.424 349.757 988.298 339.494 990.229 329.521C992.16 319.547 996.107 310.074 1001.83 301.68L1053.21 344.42L1008.35 293.42C1015.25 285.852 1023.63 279.787 1032.98 275.603C1042.32 271.418 1052.43 269.203 1062.67 269.097C1072.91 268.99 1083.06 270.995 1092.49 274.984C1101.92 278.974 1110.43 284.864 1117.48 292.286C1124.54 299.708 1129.99 308.504 1133.49 318.126C1137 327.747 1138.48 337.987 1137.85 348.208C1137.23 358.428 1134.5 368.41 1129.85 377.531C1125.19 386.651 1118.71 394.715 1110.8 401.22C1113.14 406.044 1114.95 411.107 1116.2 416.32L1058.45 431.91L1117.8 425.45C1119.17 437.774 1117.45 450.246 1112.78 461.737C1108.12 473.227 1100.67 483.374 1091.1 491.26C1097.21 503.849 1099.65 517.902 1098.15 531.814C1096.65 545.726 1091.26 558.934 1082.6 569.928C1073.95 580.922 1062.37 589.257 1049.2 593.981C1036.03 598.705 1021.79 599.627 1008.12 596.641C994.452 593.655 981.898 586.883 971.896 577.097C961.894 567.312 954.848 554.909 951.563 541.307C948.279 527.705 948.889 513.453 953.323 500.182C957.758 486.91 965.838 475.155 976.64 466.26C969.35 451.216 967.328 434.158 970.899 417.827C974.47 401.496 983.427 386.839 996.33 376.21V376.2Z" fill="#00B0FF"/>
<path opacity="0.1" d="M1116.53 449.67C1112.99 466.011 1104.03 480.674 1091.1 491.28C1097.21 503.869 1099.65 517.923 1098.15 531.834C1096.65 545.746 1091.26 558.954 1082.6 569.948C1073.95 580.942 1062.37 589.277 1049.2 594.001C1036.03 598.726 1021.79 599.647 1008.12 596.661C994.452 593.676 981.898 586.903 971.896 577.117C961.894 567.332 954.848 554.929 951.563 541.327C948.279 527.725 948.889 513.473 953.323 500.202C957.758 486.931 965.838 475.175 976.64 466.28C969.59 451.72 1118.32 441.5 1116.53 449.67Z" fill="black"/>
</g>
<path d="M1043.98 83.3H118.5C116.315 83.3 114.219 84.1682 112.673 85.7135C111.128 87.2588 110.26 89.3546 110.26 91.54V115.54H1052.26V91.54C1052.26 90.4545 1052.05 89.3798 1051.63 88.3774C1051.21 87.3751 1050.6 86.4649 1049.83 85.6993C1049.06 84.9336 1048.15 84.3275 1047.15 83.9157C1046.14 83.504 1045.07 83.2948 1043.98 83.3Z" fill="#3F3D56"/>
<path d="M110.26 115.56V656.11C110.26 660.519 112.011 664.747 115.127 667.866C118.244 670.984 122.471 672.737 126.88 672.74H1035.63C1040.04 672.74 1044.27 670.988 1047.39 667.869C1050.51 664.75 1052.26 660.521 1052.26 656.11V115.56H110.26Z" fill="#757B83" fill-opacity="0.55"/>
<path opacity="0.8" d="M125.19 103.03C127.316 103.03 129.04 101.306 129.04 99.18C129.04 97.0537 127.316 95.33 125.19 95.33C123.064 95.33 121.34 97.0537 121.34 99.18C121.34 101.306 123.064 103.03 125.19 103.03Z" fill="#FA5959"/>
<path opacity="0.8" d="M135.79 103.03C137.916 103.03 139.64 101.306 139.64 99.18C139.64 97.0537 137.916 95.33 135.79 95.33C133.664 95.33 131.94 97.0537 131.94 99.18C131.94 101.306 133.664 103.03 135.79 103.03Z" fill="#FED253"/>
<path opacity="0.8" d="M146.38 103.03C148.506 103.03 150.23 101.306 150.23 99.18C150.23 97.0537 148.506 95.33 146.38 95.33C144.254 95.33 142.53 97.0537 142.53 99.18C142.53 101.306 144.254 103.03 146.38 103.03Z" fill="#8CCF4D"/>
<path opacity="0.1" d="M937.05 328.03H225.47C222.085 328.03 219.34 330.775 219.34 334.16V637.99C219.34 641.376 222.085 644.12 225.47 644.12H937.05C940.436 644.12 943.18 641.376 943.18 637.99V334.16C943.18 330.775 940.436 328.03 937.05 328.03Z" fill="white"/>
<path d="M725.07 465.5H363.1C358.025 465.5 353.91 469.615 353.91 474.69V496.72C353.91 501.795 358.025 505.91 363.1 505.91H725.07C730.146 505.91 734.26 501.795 734.26 496.72V474.69C734.26 469.615 730.146 465.5 725.07 465.5Z" fill="#E5E5E5"/>
<path d="M804 466.23H763.02C760.474 466.23 758.41 468.294 758.41 470.84V502.03C758.41 504.576 760.474 506.64 763.02 506.64H804C806.546 506.64 808.61 504.576 808.61 502.03V470.84C808.61 468.294 806.546 466.23 804 466.23Z" fill="#00B0FF"/>
<path d="M787.84 489.11H786.91L786.55 488.82C787.728 487.421 788.373 485.649 788.37 483.82C788.364 482.329 787.916 480.873 787.083 479.636C786.249 478.4 785.068 477.438 783.688 476.873C782.308 476.307 780.791 476.164 779.33 476.461C777.868 476.758 776.528 477.481 775.477 478.54C774.427 479.598 773.714 480.945 773.429 482.409C773.144 483.872 773.299 485.388 773.875 486.763C774.452 488.139 775.423 489.312 776.666 490.136C777.909 490.96 779.369 491.396 780.86 491.39C782.665 491.38 784.411 490.744 785.8 489.59L786.15 489.89V490.81L791.96 496.65L793.71 494.9L787.84 489.11ZM780.84 489.11C779.801 489.114 778.784 488.809 777.918 488.235C777.052 487.66 776.376 486.842 775.975 485.883C775.575 484.924 775.468 483.868 775.668 482.848C775.869 481.828 776.367 480.891 777.101 480.155C777.834 479.419 778.769 478.917 779.788 478.712C780.807 478.508 781.864 478.611 782.824 479.008C783.785 479.405 784.606 480.077 785.184 480.941C785.762 481.805 786.07 482.821 786.07 483.86C786.075 484.548 785.944 485.229 785.685 485.866C785.425 486.503 785.043 487.082 784.558 487.57C784.074 488.058 783.498 488.445 782.863 488.71C782.228 488.974 781.548 489.11 780.86 489.11H780.84Z" fill="#E5E5E5"/>
<path fill-rule="evenodd" clip-rule="evenodd" d="M287.72 208.29H402.09C407.51 208.293 412.708 210.447 416.54 214.28C420.373 218.112 422.527 223.31 422.53 228.73V343.11C422.525 348.529 420.369 353.723 416.537 357.554C412.704 361.384 407.508 363.537 402.09 363.54H287.72C282.3 363.54 277.101 361.388 273.267 357.557C269.432 353.727 267.275 348.53 267.27 343.11V228.68C267.274 225.998 267.806 223.344 268.836 220.868C269.866 218.392 271.373 216.143 273.272 214.25C275.171 212.356 277.424 210.856 279.903 209.833C282.382 208.81 285.038 208.286 287.72 208.29Z" fill="#00B0FF"/>
<path fill-rule="evenodd" clip-rule="evenodd" d="M361.08 242.95V237.63C361.08 235.842 360.37 234.128 359.106 232.864C357.842 231.6 356.127 230.89 354.34 230.89H338.63C336.842 230.89 335.128 231.6 333.864 232.864C332.6 234.128 331.89 235.842 331.89 237.63V243.11C331.89 243.253 331.922 243.393 331.985 243.522C332.048 243.65 332.14 243.762 332.253 243.849C332.366 243.936 332.498 243.995 332.637 244.023C332.777 244.051 332.922 244.047 333.06 244.01C337.506 242.73 342.113 242.09 346.74 242.11C351.21 242.094 355.663 242.676 359.98 243.84C360.115 243.876 360.256 243.879 360.393 243.851C360.529 243.823 360.657 243.763 360.767 243.677C360.876 243.591 360.965 243.48 361.024 243.354C361.084 243.228 361.113 243.089 361.11 242.95M318.05 249.95L315.36 247.26C314.735 246.635 313.993 246.139 313.176 245.8C312.359 245.462 311.484 245.288 310.6 245.288C309.716 245.288 308.84 245.462 308.024 245.8C307.207 246.139 306.465 246.635 305.84 247.26L302.63 250.47C302.007 251.092 301.513 251.831 301.176 252.644C300.839 253.458 300.665 254.329 300.665 255.21C300.665 256.09 300.839 256.962 301.176 257.775C301.513 258.589 302.007 259.328 302.63 259.95L305.27 262.59C305.369 262.678 305.484 262.746 305.609 262.789C305.734 262.832 305.867 262.85 305.999 262.842C306.131 262.833 306.26 262.799 306.378 262.74C306.497 262.681 306.603 262.6 306.69 262.5C308.248 260.372 309.967 258.367 311.83 256.5C313.715 254.614 315.748 252.882 317.91 251.32C318.019 251.247 318.111 251.151 318.179 251.039C318.247 250.926 318.29 250.8 318.304 250.67C318.318 250.539 318.304 250.407 318.262 250.283C318.219 250.158 318.151 250.045 318.06 249.95M346.73 266.85V289.85C346.73 290.005 346.77 290.158 346.846 290.293C346.922 290.428 347.032 290.542 347.164 290.623C347.296 290.704 347.447 290.75 347.602 290.757C347.757 290.763 347.911 290.73 348.05 290.66L368.49 280.11C368.598 280.051 368.694 279.972 368.771 279.876C368.848 279.78 368.906 279.67 368.94 279.552C368.974 279.434 368.985 279.31 368.971 279.188C368.957 279.066 368.92 278.947 368.86 278.84C366.713 275.065 363.636 271.902 359.922 269.651C356.208 267.4 351.98 266.137 347.64 265.98C347.516 265.972 347.391 265.988 347.273 266.029C347.155 266.069 347.047 266.133 346.954 266.216C346.861 266.299 346.785 266.399 346.731 266.511C346.677 266.624 346.646 266.746 346.64 266.87M346.64 322.35C340.535 322.328 334.574 320.498 329.508 317.091C324.443 313.683 320.501 308.851 318.18 303.205C315.859 297.559 315.263 291.351 316.467 285.366C317.671 279.382 320.622 273.888 324.946 269.579C329.271 265.27 334.775 262.339 340.764 261.156C346.753 259.973 352.958 260.591 358.596 262.932C364.234 265.273 369.052 269.232 372.441 274.31C375.831 279.387 377.64 285.355 377.64 291.46C377.633 295.524 376.826 299.547 375.265 303.299C373.703 307.051 371.418 310.458 368.539 313.327C365.66 316.195 362.244 318.469 358.487 320.017C354.729 321.565 350.704 322.358 346.64 322.35ZM346.64 247.57C337.964 247.58 329.486 250.162 322.277 254.99C315.069 259.818 309.454 266.674 306.142 274.693C302.83 282.712 301.97 291.533 303.671 300.04C305.372 308.548 309.557 316.36 315.697 322.489C321.838 328.618 329.657 332.789 338.168 334.474C346.679 336.16 355.498 335.284 363.51 331.957C371.523 328.631 378.37 323.003 383.184 315.786C387.999 308.568 390.566 300.086 390.56 291.41C390.544 279.774 385.909 268.62 377.674 260.4C369.438 252.179 358.276 247.565 346.64 247.57Z" fill="#E5E5E5"/>
<path d="M474.74 545.92C473.74 540.21 474.23 534.06 471.62 528.92C471.357 528.316 470.944 527.789 470.42 527.39C469.765 527.044 469.03 526.878 468.29 526.91C465.93 526.81 463.56 526.79 461.2 526.84C460.869 526.8 460.533 526.841 460.221 526.959C459.909 527.078 459.631 527.27 459.41 527.52L459.32 527.72C456.61 524.72 454.56 520.93 451.65 518.14C452.06 518 452.48 517.86 452.9 517.75C452.861 517.467 452.808 517.187 452.74 516.91C452.74 516.83 452.74 516.75 452.68 516.66C452.62 516.57 452.58 516.28 452.52 516.09C452.46 515.9 452.46 515.91 452.43 515.81L452.25 515.29C452.25 515.19 452.17 515.1 452.14 515.01C452.11 514.92 452 514.66 451.92 514.49C451.879 514.409 451.842 514.325 451.81 514.24L451.55 513.7C451.517 513.625 451.48 513.551 451.44 513.48C451.34 513.29 451.25 513.1 451.14 512.92C451.11 512.858 451.077 512.798 451.04 512.74C450.93 512.53 450.82 512.33 450.7 512.13C450.683 512.09 450.659 512.053 450.63 512.02C450.5 511.79 450.36 511.56 450.22 511.33C449.09 509.46 447.82 507.63 446.89 505.73C445.26 502.36 444.73 498.57 443.64 494.99C442.55 491.41 440.64 487.77 437.39 486.07C435.83 485.26 433.73 484.56 433.58 482.78C433.58 482.2 433.717 481.627 433.98 481.11C434.422 479.963 434.967 478.858 435.61 477.81C435.84 477.42 436.09 477.04 436.35 476.67L436.55 476.39C436.75 476.11 436.95 475.84 437.17 475.57L437.43 475.24C437.64 474.99 437.85 474.74 438.08 474.5L438.34 474.2C438.647 473.867 438.98 473.533 439.34 473.2C439.641 472.963 439.881 472.658 440.04 472.31C440.105 471.96 440.105 471.6 440.04 471.25C439.87 468.4 441.38 465.73 443.04 463.43C444.7 461.13 446.66 458.95 447.6 456.25C447.71 455.94 447.8 455.63 447.88 455.32C447.88 455.21 447.93 455.11 447.95 455.01C447.97 454.91 448.05 454.58 448.09 454.37C448.13 454.16 448.09 454.12 448.14 454C448.19 453.88 448.19 453.61 448.21 453.41C448.23 453.21 448.21 453.15 448.21 453.02C448.22 452.827 448.22 452.633 448.21 452.44C448.21 452.31 448.21 452.18 448.21 452.05C448.21 451.92 448.21 451.65 448.21 451.45C448.21 451.25 448.21 451.2 448.21 451.08L448.15 450.45V450.1C448.15 449.86 448.09 449.62 448.05 449.37V449.13L447.87 448.13C447.39 446.01 446.776 443.922 446.03 441.88C445.631 440.624 445.123 439.406 444.51 438.24C444.88 438.17 445.25 438.08 445.62 437.98C445.39 437.55 445.02 437.05 444.81 436.56C447.118 433.173 448.845 429.425 449.92 425.47C450.52 422.65 450.872 419.782 450.97 416.9C451.53 408.25 452.08 399.55 451.37 390.9V390.57C451.63 388.71 451.65 386.825 451.43 384.96C451.195 381.319 450.117 377.782 448.28 374.63C446.35 371.57 443.14 368.88 439.58 368.52C438.995 369.18 438.345 369.78 437.64 370.31C436.575 369.369 435.792 368.15 435.38 366.79C439.535 366.134 443.361 364.134 446.271 361.096C449.181 358.058 451.014 354.15 451.49 349.97C451.49 349.65 451.55 349.33 451.57 348.97C451.57 348.84 451.57 348.71 451.57 348.58V348.04V347.13V346.54C451.57 346.44 451.57 346.33 451.57 346.23C451.57 346.13 451.57 345.8 451.57 345.58V345.36C451.57 345.12 451.52 344.89 451.48 344.65C451.48 344.6 451.48 344.55 451.48 344.5C451.48 344.25 451.39 344 451.34 343.75V343.68L451.16 342.88C450.708 341.061 449.997 339.317 449.05 337.7C449.828 335.928 450.34 334.051 450.57 332.13C450.57 331.79 450.64 331.44 450.66 331.13V330.47C450.66 330.36 450.66 330.25 450.66 330.14C450.66 329.85 450.66 329.57 450.66 329.28V329.19C450.505 324.387 448.582 319.811 445.26 316.34C445.656 315.685 445.99 314.996 446.26 314.28L446.47 313.65C446.53 313.45 446.58 313.24 446.63 313.04V312.99C446.63 312.8 446.72 312.6 446.75 312.41C446.755 312.377 446.755 312.343 446.75 312.31C446.75 312.09 446.82 311.87 446.85 311.64C446.88 311.41 446.9 311.17 446.91 310.93C446.915 310.857 446.915 310.783 446.91 310.71C446.91 310.55 446.91 310.39 446.91 310.23C446.915 310.147 446.915 310.063 446.91 309.98C446.91 309.82 446.91 309.66 446.91 309.5C446.91 309.34 446.91 309.36 446.91 309.29C446.787 307.683 446.338 306.119 445.59 304.692C444.842 303.265 443.811 302.005 442.56 300.99C441.309 299.975 439.864 299.225 438.313 298.788C436.763 298.35 435.139 298.233 433.542 298.444C431.945 298.655 430.407 299.19 429.023 300.015C427.64 300.841 426.439 301.94 425.494 303.245C424.55 304.55 423.881 306.034 423.53 307.607C423.178 309.179 423.151 310.807 423.45 312.39C420.538 313.813 418.031 315.945 416.16 318.591C414.288 321.237 413.112 324.311 412.74 327.53C412.614 328.608 412.577 329.695 412.63 330.78C410.902 333.486 409.872 336.578 409.63 339.78C409.63 339.9 409.63 340.02 409.63 340.15C409.63 340.55 409.63 340.95 409.63 341.36C409.623 344.322 410.292 347.246 411.586 349.909C412.881 352.573 414.767 354.906 417.1 356.73C418.075 358.306 419.361 359.667 420.88 360.73C421.147 361.549 421.348 362.388 421.48 363.24C421.59 364.379 421.441 365.528 421.044 366.602C420.648 367.675 420.014 368.646 419.19 369.44C418.76 369.81 418.27 370.11 417.83 370.44C417.372 370.31 416.888 370.31 416.43 370.44C411.28 372.06 406.34 375.27 403.96 380.19C403.43 381.304 403.018 382.47 402.73 383.67L402.44 384.09C399.309 388.997 397.055 394.411 395.78 400.09C395.13 403 394.72 406.03 393.36 408.68C393.031 409.227 392.77 409.811 392.58 410.42C392.459 411.355 392.419 412.298 392.46 413.24C392.31 414.94 391.33 416.45 390.99 418.12C390.8 419.12 390.84 420.12 390.66 421.12C390.182 422.836 389.56 424.509 388.8 426.12C387.73 429.06 387.74 432.29 386.95 435.32C386.861 435.818 386.648 436.286 386.33 436.68C385.707 437.171 385.003 437.55 384.25 437.8C383.701 438.148 383.231 438.607 382.871 439.148C382.511 439.689 382.269 440.299 382.16 440.94C381.956 442.227 381.933 443.536 382.09 444.83L382.48 449.91C380.59 450.47 378.7 451.05 376.81 451.63L367.49 454.48C364.754 455.166 362.14 456.269 359.74 457.75C357.599 459.229 355.912 461.276 354.87 463.66C353.92 466.146 353.311 468.75 353.06 471.4C352.072 478.849 350.371 486.186 347.98 493.31C347.79 493.86 347.6 494.4 347.39 494.94C347.19 495.48 346.98 496.01 346.76 496.54C346.76 496.65 346.67 496.76 346.62 496.87C346.45 497.29 346.27 497.72 346.08 498.14C345.89 498.56 345.59 499.21 345.34 499.74L367.16 507.01C367.16 507.27 367.21 507.55 367.26 507.86C368.01 513.22 367.64 518.67 368.34 524.03C368.431 524.926 368.636 525.806 368.95 526.65C368.396 527.129 367.999 527.763 367.81 528.47C367.558 529.61 367.521 530.786 367.7 531.94C367.94 534.68 368.19 537.43 368.44 540.17C368.558 541.166 368.558 542.173 368.44 543.17C368.16 544.98 367.13 546.56 366.56 548.3C365.99 550.04 366.01 552.24 367.45 553.3C367.951 553.637 368.529 553.842 369.13 553.896C369.731 553.95 370.337 553.852 370.89 553.61C371.99 553.099 372.961 552.347 373.73 551.41C378.13 546.54 380.09 539.94 383.51 534.32C384.384 533.016 385.166 531.653 385.85 530.24C386.31 529.15 386.61 527.99 386.99 526.87C387.512 525.363 388.144 523.895 388.88 522.48C389.28 521.67 390.88 519.72 390.51 518.81C389.95 517.27 383.96 515.9 382.51 515.43C381.588 515.007 380.538 514.957 379.58 515.29C379.44 515.361 379.309 515.448 379.19 515.55C379.02 513.35 378.84 511.15 378.67 508.94C379.56 508.87 380.44 508.75 381.32 508.61C381.32 507.37 381.26 506.11 381.23 504.86C381.2 503.61 381.17 502.56 381.15 501.41C381.09 498.62 381.03 495.82 380.95 493.07C380.937 491.449 380.833 489.83 380.64 488.22C380.3 485.76 379.55 483.37 379.32 480.9C379.675 480.61 380.098 480.413 380.55 480.33C381.254 480.221 381.97 480.198 382.68 480.26H383.23C386.335 480.213 389.377 479.377 392.07 477.83C394.81 476.39 397.36 474.6 400.07 473.14C400.41 472.95 400.75 472.78 401.07 472.6L401.44 472.41L402.08 472.1L402.62 471.84L402.74 471.78C404.33 471.02 405.94 470.28 407.48 469.46C407.581 469.626 407.691 469.786 407.81 469.94C408.181 470.45 408.697 470.838 409.29 471.054C409.883 471.269 410.527 471.303 411.14 471.15C409.26 475.7 407.04 480.15 406.47 485.03C405.66 492.13 408.47 499.08 411.28 505.64L420.18 526.64C421.18 528.95 422.47 531.56 424.89 532.11C426.439 532.317 428.012 532 429.36 531.21C433.42 529.28 437.09 526.49 440.82 523.9L440.96 524.01C444.34 526.67 446.44 530.39 448.77 533.93L455.01 544.18C454.963 544.693 455.049 545.21 455.26 545.68C455.711 546.527 456.303 547.291 457.01 547.94C460.962 552.209 463.567 557.548 464.5 563.29C464.586 564.763 465.01 566.197 465.74 567.48C467.42 569.8 470.97 569.65 473.49 568.32C474.259 567.96 474.926 567.413 475.43 566.73C475.845 565.978 476.11 565.153 476.21 564.3C476.664 562.182 476.915 560.026 476.96 557.86C476.98 553.85 475.47 549.94 474.74 545.92ZM438.98 357.5C439.41 357.2 439.83 356.89 440.24 356.56C439.397 359.1 438.035 361.436 436.24 363.42C435.82 363.88 435.37 364.32 434.91 364.74C434.91 364.63 434.91 364.53 434.91 364.42C434.85 363.42 434.91 362.31 434.91 361.25C436.51 360.294 437.896 359.017 438.98 357.5ZM403.67 436.41C403.67 436.34 403.72 436.28 403.74 436.21C404.093 436.471 404.4 436.789 404.65 437.15C404.404 437.685 404.287 438.271 404.31 438.86C404.332 439.449 404.493 440.025 404.78 440.54C405.31 441.42 406.25 442.24 406.04 443.25C405.83 444.26 404.56 444.65 403.52 444.82C402.16 445.04 400.81 445.3 399.45 445.57C399.454 445.547 399.454 445.523 399.45 445.5C399.48 444.373 399.328 443.249 399 442.17C401.33 441.17 402.76 438.79 403.67 436.41Z" fill="url(#paint0_linear_285_2)"/>
<path d="M445.29 319.98C446.269 318.33 446.834 316.468 446.935 314.552C447.037 312.636 446.673 310.724 445.875 308.98C445.076 307.236 443.866 305.711 442.35 304.537C440.833 303.362 439.054 302.573 437.165 302.236C435.277 301.9 433.334 302.026 431.505 302.604C429.676 303.182 428.014 304.195 426.662 305.556C425.31 306.916 424.308 308.585 423.741 310.418C423.175 312.251 423.061 314.193 423.41 316.08C420.022 317.703 417.187 320.288 415.259 323.512C413.331 326.736 412.396 330.457 412.57 334.21C410.95 336.699 409.933 339.531 409.6 342.482C409.267 345.433 409.628 348.421 410.654 351.208C411.679 353.995 413.341 356.505 415.507 358.536C417.673 360.568 420.284 362.066 423.131 362.911C425.977 363.756 428.982 363.925 431.906 363.404C434.83 362.883 437.592 361.687 439.972 359.911C442.352 358.135 444.284 355.828 445.615 353.173C446.947 350.518 447.64 347.59 447.64 344.62C447.64 344.32 447.64 344.02 447.64 343.72C450.008 340.088 451.069 335.758 450.647 331.443C450.225 327.127 448.347 323.085 445.32 319.98H445.29Z" fill="#3F3D56"/>
<g opacity="0.1">
<path d="M423.25 313.11L423.41 313.03C423.41 312.82 423.35 312.61 423.32 312.41C423.32 312.41 423.32 312.49 423.32 312.54C423.32 312.59 423.27 312.88 423.25 313.11Z" fill="black"/>
<path d="M450.57 332.49C450.213 335.396 449.186 338.179 447.57 340.62C447.57 340.92 447.57 341.22 447.57 341.53C447.577 346.462 445.675 351.205 442.261 354.765C438.848 358.324 434.189 360.424 429.261 360.623C424.333 360.822 419.519 359.106 415.83 355.833C412.14 352.561 409.861 347.987 409.47 343.07C409.47 343.58 409.41 344.07 409.41 344.62C409.41 349.681 411.42 354.534 414.999 358.112C418.577 361.69 423.43 363.7 428.49 363.7C433.551 363.7 438.404 361.69 441.982 358.112C445.56 354.534 447.57 349.681 447.57 344.62C447.57 344.32 447.57 344.02 447.57 343.72C449.881 340.167 450.937 335.943 450.57 331.72C450.62 331.99 450.6 332.24 450.57 332.49Z" fill="black"/>
<path d="M446.85 312.35C446.647 313.954 446.116 315.5 445.29 316.89C445.62 317.23 445.94 317.59 446.24 317.96C446.549 317.114 446.761 316.235 446.87 315.34C446.988 314.347 446.981 313.342 446.85 312.35Z" fill="black"/>
</g>
<path d="M368.4 524.68C368.494 525.765 368.789 526.823 369.27 527.8C369.517 528.286 369.874 528.708 370.314 529.031C370.753 529.354 371.262 529.569 371.8 529.66C372.788 529.664 373.757 529.383 374.59 528.85C376.29 527.96 378.05 526.93 378.94 525.23C379.83 523.53 379.67 521.62 379.53 519.77L378.39 505.22C375.64 505.15 372.88 505.15 370.13 505.3C367.38 505.45 366.94 506.09 367.32 508.74C368.07 514.03 367.7 519.39 368.4 524.68Z" fill="#FBBEBE"/>
<path d="M448.98 534.51L455.56 545.11C455.839 545.725 456.349 546.207 456.98 546.45C457.451 546.515 457.93 546.431 458.35 546.21C460.464 545.103 462.321 543.562 463.8 541.69C464.979 540.584 465.877 539.213 466.42 537.69C466.629 536.841 466.619 535.954 466.39 535.11C466.161 534.267 465.72 533.496 465.11 532.87C464.342 532.21 463.515 531.621 462.64 531.11C457.48 527.63 455.14 521 450.04 517.42C449.756 517.181 449.409 517.028 449.04 516.98C448.661 516.997 448.294 517.118 447.98 517.33L440.98 521.11C437.98 522.76 438.92 522.95 441.21 524.73C444.58 527.35 446.69 531.02 448.98 534.51Z" fill="#FBBEBE"/>
<path d="M382.6 516.27C381.672 515.857 380.623 515.807 379.66 516.13C379.239 516.39 378.883 516.742 378.618 517.159C378.353 517.577 378.186 518.049 378.13 518.54C377.95 519.54 377.97 520.54 377.7 521.47C377.105 523.023 376.124 524.4 374.85 525.47C374.374 526.035 373.756 526.463 373.06 526.71C372.12 526.95 371.12 526.51 370.16 526.71C369.601 526.851 369.092 527.143 368.688 527.554C368.284 527.965 368.001 528.479 367.87 529.04C367.62 530.166 367.579 531.329 367.75 532.47L368.5 540.58C368.622 541.576 368.622 542.584 368.5 543.58C368.22 545.36 367.19 546.93 366.61 548.58C366.03 550.23 366.07 552.48 367.51 553.58C368.011 553.917 368.589 554.122 369.19 554.176C369.792 554.23 370.397 554.132 370.95 553.89C372.053 553.393 373.028 552.651 373.8 551.72C378.2 546.92 380.17 540.42 383.6 534.87C384.471 533.592 385.253 532.256 385.94 530.87C386.41 529.79 386.71 528.65 387.09 527.53C387.615 526.048 388.244 524.605 388.97 523.21C389.38 522.41 390.97 520.49 390.61 519.6C390.08 518.11 384.08 516.74 382.6 516.27Z" fill="#3F3D56"/>
<path d="M461.98 538.63C461 540.502 459.345 541.932 457.35 542.63C456.77 542.785 456.231 543.065 455.77 543.45C455.472 543.821 455.287 544.271 455.239 544.745C455.191 545.219 455.282 545.697 455.5 546.12C455.955 546.959 456.547 547.716 457.25 548.36C461.207 552.541 463.823 557.81 464.76 563.49C464.848 564.941 465.272 566.352 466 567.61C467.68 569.9 471.24 569.75 473.76 568.45C474.532 568.099 475.2 567.555 475.7 566.87C476.12 566.134 476.389 565.321 476.49 564.48C476.939 562.392 477.19 560.266 477.24 558.13C477.24 554.13 475.67 550.25 474.95 546.28C473.95 540.65 474.44 534.59 471.82 529.5C471.557 528.905 471.143 528.388 470.62 528C469.965 527.654 469.23 527.488 468.49 527.52C466.124 527.42 463.754 527.4 461.38 527.46C461.047 527.355 460.689 527.365 460.363 527.491C460.037 527.616 459.764 527.848 459.587 528.149C459.41 528.45 459.341 528.802 459.391 529.147C459.44 529.493 459.606 529.811 459.86 530.05C461.35 532.89 463.72 535.19 461.98 538.63Z" fill="#3F3D56"/>
<path d="M405.75 437.74C405.085 438.286 404.635 439.048 404.477 439.893C404.32 440.738 404.466 441.612 404.89 442.36C405.41 443.23 406.35 444.04 406.15 445.03C405.95 446.02 404.66 446.42 403.62 446.58C394.44 448.04 385.5 450.73 376.62 453.41L367.28 456.22C364.547 456.897 361.934 457.986 359.53 459.45C357.39 460.902 355.697 462.921 354.64 465.28C353.695 467.727 353.086 470.29 352.83 472.9C351.43 482.44 349.64 492.08 345.38 500.73L367.98 508.16C370.174 508.966 372.446 509.539 374.76 509.87C376.968 510.049 379.19 509.941 381.37 509.55C381.23 504.49 381.15 499.28 381.01 494.22C380.993 492.622 380.886 491.026 380.69 489.44C380.36 487.02 379.6 484.66 379.37 482.23C380.37 481.37 381.93 481.58 383.29 481.62C386.395 481.579 389.44 480.754 392.14 479.22C394.89 477.8 397.44 476.04 400.14 474.59C404.69 472.19 409.87 470.59 413.34 466.77C411.57 473.51 407.39 479.39 406.58 486.32C405.77 493.25 408.58 500.17 411.4 506.64L420.31 527.32C421.31 529.6 422.6 532.17 425.03 532.72C426.577 532.918 428.147 532.606 429.5 531.83C437.7 527.99 444.26 520.77 453.02 518.46C452.37 514.12 448.94 510.54 447.02 506.61C445.39 503.29 444.85 499.61 443.76 496.02C442.67 492.43 440.76 488.91 437.5 487.23C435.94 486.43 433.83 485.74 433.68 483.99C433.676 483.428 433.796 482.871 434.03 482.36C435.203 479.407 437.025 476.755 439.36 474.6C439.663 474.37 439.904 474.067 440.06 473.72C440.141 473.393 440.158 473.053 440.11 472.72C439.95 469.9 441.46 467.27 443.11 465.01C444.76 462.75 446.73 460.59 447.68 457.93C449.31 453.36 447.68 448.35 446.08 443.77C445.558 441.877 444.648 440.114 443.41 438.59C441.31 436.34 438.04 435.69 434.99 435.36C425.19 434.23 413.6 431.65 405.75 437.74Z" fill="#3F3D56"/>
<g opacity="0.1">
<path d="M443.19 457.75C441.51 460.01 440 462.65 440.19 465.46C440.239 465.793 440.222 466.133 440.14 466.46C439.986 466.809 439.745 467.112 439.44 467.34C437.093 469.495 435.261 472.151 434.08 475.11C433.846 475.621 433.727 476.178 433.73 476.74C433.836 477.267 434.076 477.758 434.426 478.166C434.776 478.574 435.225 478.885 435.73 479.07C436.752 477.408 437.997 475.894 439.43 474.57C439.733 474.34 439.974 474.037 440.13 473.69C440.212 473.363 440.229 473.023 440.18 472.69C440.02 469.87 441.53 467.24 443.18 464.98C444.83 462.72 446.8 460.56 447.75 457.9C448.575 455.308 448.658 452.537 447.99 449.9C447.92 450.17 447.84 450.42 447.75 450.68C446.81 453.33 444.87 455.48 443.19 457.75Z" fill="black"/>
<path d="M404.72 439.11C405.052 439.039 405.359 438.881 405.61 438.653C405.861 438.425 406.048 438.134 406.15 437.81C406.169 437.684 406.169 437.556 406.15 437.43L405.73 437.74C405.28 438.101 404.932 438.573 404.72 439.11Z" fill="black"/>
<path d="M374.79 502.65C372.476 502.319 370.204 501.746 368.01 500.94L348.01 494.38C347.253 496.547 346.368 498.668 345.36 500.73L367.98 508.16C370.174 508.966 372.446 509.539 374.76 509.87C376.968 510.049 379.19 509.941 381.37 509.55C381.31 507.17 381.25 504.76 381.2 502.35C379.085 502.726 376.931 502.827 374.79 502.65Z" fill="black"/>
<path d="M429.57 524.61C428.218 525.39 426.647 525.702 425.1 525.5C422.67 524.95 421.36 522.39 420.38 520.1L411.47 499.42C409.47 494.88 407.53 490.14 406.8 485.3C406.74 485.64 406.69 485.973 406.65 486.3C405.83 493.3 408.65 500.15 411.47 506.62L420.38 527.3C421.38 529.58 422.67 532.15 425.1 532.7C426.647 532.898 428.217 532.585 429.57 531.81C437.77 527.97 444.33 520.75 453.09 518.44C452.632 516.171 451.721 514.018 450.41 512.11C442.98 515.04 436.91 521.17 429.57 524.61Z" fill="black"/>
<path d="M413.41 459.55C409.94 463.35 404.76 464.97 400.21 467.38C397.47 468.82 394.92 470.59 392.21 472C389.51 473.533 386.465 474.359 383.36 474.4C382 474.4 380.48 474.15 379.44 475.01C379.66 477.26 380.31 479.44 380.68 481.67C381.57 481.57 382.469 481.57 383.36 481.67C386.465 481.629 389.51 480.803 392.21 479.27C394.96 477.85 397.51 476.09 400.21 474.64C403.21 473.06 406.47 471.81 409.35 470.06C410.955 466.659 412.312 463.146 413.41 459.55Z" fill="black"/>
</g>
<path d="M421.36 366.16C421.466 367.288 421.313 368.425 420.915 369.485C420.517 370.545 419.882 371.501 419.06 372.28C418.5 372.74 417.86 373.1 417.32 373.58C416.844 374.069 416.48 374.656 416.254 375.3C416.028 375.945 415.944 376.63 416.01 377.31C416.076 377.989 416.289 378.646 416.634 379.235C416.979 379.824 417.449 380.331 418.01 380.72C419.81 381.82 422.1 381.52 424.18 381.16C426.949 380.771 429.664 380.063 432.27 379.05C434.893 378.015 437.127 376.186 438.66 373.82C437.562 373.123 436.654 372.165 436.019 371.03C435.383 369.895 435.04 368.62 435.02 367.32C434.89 364.73 435.6 361.79 433.95 359.78C432.3 357.77 429.4 357.85 426.95 358.52C425.74 358.85 424.57 359.31 423.36 359.64C422.75 359.81 420.72 359.81 420.36 360.26C419.63 361.11 421.29 364.86 421.36 366.16Z" fill="#FBBEBE"/>
<path opacity="0.1" d="M421.36 366.16C421.466 367.288 421.313 368.425 420.915 369.485C420.517 370.545 419.882 371.501 419.06 372.28C418.5 372.74 417.86 373.1 417.32 373.58C416.844 374.069 416.48 374.656 416.254 375.3C416.028 375.945 415.944 376.63 416.01 377.31C416.076 377.989 416.289 378.646 416.634 379.235C416.979 379.824 417.449 380.331 418.01 380.72C419.81 381.82 422.1 381.52 424.18 381.16C426.949 380.771 429.664 380.063 432.27 379.05C434.893 378.015 437.127 376.186 438.66 373.82C437.562 373.123 436.654 372.165 436.019 371.03C435.383 369.895 435.04 368.62 435.02 367.32C434.89 364.73 435.6 361.79 433.95 359.78C432.3 357.77 429.4 357.85 426.95 358.52C425.74 358.85 424.57 359.31 423.36 359.64C422.75 359.81 420.72 359.81 420.36 360.26C419.63 361.11 421.29 364.86 421.36 366.16Z" fill="black"/>
<path d="M428.3 366.02C435.706 366.02 441.71 360.016 441.71 352.61C441.71 345.204 435.706 339.2 428.3 339.2C420.894 339.2 414.89 345.204 414.89 352.61C414.89 360.016 420.894 366.02 428.3 366.02Z" fill="#FBBEBE"/>
<path d="M385.98 455.48C385.746 456.548 385.319 457.565 384.72 458.48C383.161 461.259 382.596 464.487 383.12 467.63C383.404 469.189 384.067 470.655 385.051 471.898C386.034 473.141 387.308 474.124 388.76 474.76C389.366 475.057 390.038 475.191 390.712 475.149C391.385 475.107 392.036 474.89 392.6 474.52C390.81 472.19 390.72 469 390.82 466.07C390.79 465.521 390.922 464.975 391.2 464.5C391.275 464.39 391.371 464.295 391.483 464.223C391.595 464.15 391.721 464.101 391.852 464.078C391.984 464.054 392.118 464.058 392.248 464.087C392.379 464.117 392.502 464.172 392.61 464.25C392.571 466.098 392.929 467.932 393.66 469.63C393.94 470.28 394.43 471.01 395.14 470.99C396.14 470.99 396.44 469.58 396.4 468.56C396.24 464.4 396.04 460.07 394.03 456.42C393.154 455.173 392.479 453.796 392.03 452.34C392.02 451.82 391.841 451.318 391.52 450.91C391.299 450.737 391.043 450.614 390.77 450.55C389.61 450.23 386.88 449.21 385.93 450.29C384.98 451.37 386.15 454.11 385.98 455.48Z" fill="#FBBEBE"/>
<path d="M405.87 384.24C404.34 384.07 403.12 385.48 402.28 386.77C399.145 391.611 396.887 396.966 395.61 402.59C394.96 405.47 394.55 408.45 393.19 411.06C392.86 411.601 392.595 412.178 392.4 412.78C392.285 413.699 392.244 414.625 392.28 415.55C392.13 417.23 391.15 418.72 390.81 420.36C390.61 421.36 390.65 422.36 390.48 423.36C390.002 425.049 389.376 426.692 388.61 428.27C387.54 431.17 387.55 434.35 386.77 437.34C386.67 437.832 386.457 438.294 386.15 438.69C385.519 439.169 384.812 439.541 384.06 439.79C383.512 440.127 383.042 440.577 382.682 441.11C382.322 441.643 382.079 442.246 381.97 442.88C381.762 444.15 381.738 445.443 381.9 446.72L382.51 454.65C383.15 454.39 383.56 453.65 384.09 453.23C385.09 452.42 386.49 452.6 387.73 452.83L389.53 453.15C391.38 453.49 393.39 453.92 394.58 455.37C395.52 453.9 394.98 451.73 396.43 450.75C396.9 450.43 397.48 450.32 397.98 450.04C398.448 449.739 398.836 449.328 399.112 448.844C399.387 448.36 399.54 447.817 399.56 447.26C399.587 446.149 399.431 445.041 399.1 443.98C401.42 442.98 402.86 440.65 403.77 438.3C404.771 435.453 405.494 432.516 405.93 429.53C408.03 417.75 409.93 405.88 410.13 393.91C410.266 391.907 410.046 389.896 409.48 387.97C408.82 386.11 407.86 384.47 405.87 384.24Z" fill="#00B0FF"/>
<path opacity="0.1" d="M405.87 384.24C404.34 384.07 403.12 385.48 402.28 386.77C399.145 391.611 396.887 396.966 395.61 402.59C394.96 405.47 394.55 408.45 393.19 411.06C392.86 411.601 392.595 412.178 392.4 412.78C392.285 413.699 392.244 414.625 392.28 415.55C392.13 417.23 391.15 418.72 390.81 420.36C390.61 421.36 390.65 422.36 390.48 423.36C390.002 425.049 389.376 426.692 388.61 428.27C387.54 431.17 387.55 434.35 386.77 437.34C386.67 437.832 386.457 438.294 386.15 438.69C385.519 439.169 384.812 439.541 384.06 439.79C383.512 440.127 383.042 440.577 382.682 441.11C382.322 441.643 382.079 442.246 381.97 442.88C381.762 444.15 381.738 445.443 381.9 446.72L382.51 454.65C383.15 454.39 383.56 453.65 384.09 453.23C385.09 452.42 386.49 452.6 387.73 452.83L389.53 453.15C391.38 453.49 393.39 453.92 394.58 455.37C395.52 453.9 394.98 451.73 396.43 450.75C396.9 450.43 397.48 450.32 397.98 450.04C398.448 449.739 398.836 449.328 399.112 448.844C399.387 448.36 399.54 447.817 399.56 447.26C399.587 446.149 399.431 445.041 399.1 443.98C401.42 442.98 402.86 440.65 403.77 438.3C404.771 435.453 405.494 432.516 405.93 429.53C408.03 417.75 409.93 405.88 410.13 393.91C410.266 391.907 410.046 389.896 409.48 387.97C408.82 386.11 407.86 384.47 405.87 384.24Z" fill="black"/>
<path d="M439.67 371.41C437.46 373.731 434.632 375.373 431.52 376.14C428.425 376.903 425.264 377.369 422.08 377.53C421.101 377.7 420.095 377.614 419.16 377.28C418.697 377.104 418.315 376.762 418.09 376.32C417.864 375.878 417.811 375.369 417.94 374.89C418.116 374.606 418.235 374.29 418.29 373.96C418.29 373.14 417.07 373.08 416.29 373.32C411.13 374.91 406.18 378.07 403.8 382.92C402.602 385.732 401.856 388.715 401.59 391.76C400.46 399.76 399.34 407.83 400.85 415.76C401.65 419.96 403.19 424.06 403.29 428.34C403.34 430.74 402.94 433.12 402.96 435.52C402.885 436.359 403.108 437.198 403.59 437.89C403.96 438.32 404.52 438.6 404.78 439.1C405.22 439.95 404.64 441.1 405.21 441.88C405.91 442.81 407.38 442.14 408.34 441.48C413.215 438.153 419.109 436.658 424.98 437.26C431.98 438.02 438.98 441.76 445.81 439.89C445.461 439.377 445.156 438.835 444.9 438.27C441.5 427.1 441.73 414.62 446.82 404.11C448.56 400.52 450.82 397.11 451.53 393.17C451.8 391.331 451.82 389.464 451.59 387.62C451.355 384.026 450.276 380.538 448.44 377.44C446.45 374.42 443.24 371.76 439.67 371.41Z" fill="#00B0FF"/>
<path d="M407.24 458.93C406.693 460.386 406.432 461.935 406.47 463.49C406.413 464.98 406.487 466.473 406.69 467.95C406.805 469.211 407.254 470.419 407.99 471.45C408.371 471.954 408.891 472.336 409.487 472.547C410.082 472.759 410.727 472.791 411.34 472.64C411.819 472.436 412.247 472.129 412.593 471.739C412.939 471.35 413.194 470.89 413.34 470.39C413.627 469.387 413.837 468.364 413.97 467.33C414.56 464.33 416.16 461.43 416.18 458.33C416.21 457.965 416.151 457.598 416.01 457.26C415.43 455.98 412.59 454.55 411.19 454.77C409.47 455.03 407.87 457.46 407.24 458.93Z" fill="#FBBEBE"/>
<path opacity="0.1" d="M445.98 382.73C445.71 385.39 448.29 387.4 449.31 389.88C449.728 391.037 449.967 392.251 450.02 393.48C450.73 402 450.18 410.57 449.62 419.11C449.532 421.95 449.198 424.778 448.62 427.56C447.18 433.39 443.62 438.45 440.17 443.35C439.647 444.152 439.037 444.893 438.35 445.56C437.337 446.408 436.205 447.102 434.99 447.62L422.98 453.38C421.489 454.04 420.071 454.854 418.75 455.81C417.222 457.015 416.019 458.583 415.25 460.37C412.94 459.19 410.54 458.13 408.25 456.95C407.71 456.68 407.11 456.32 407.02 455.72C406.89 454.91 407.73 454.34 408.31 453.72C409.39 452.65 409.73 451.06 410.31 449.65C412.23 445.06 417.05 442.12 418.79 437.45C419.45 435.66 419.66 433.64 420.84 432.13C421.519 431.381 422.281 430.71 423.11 430.13C424.936 428.573 426.611 426.845 428.11 424.97C428.791 424.265 429.349 423.45 429.76 422.56C430.136 421.187 430.268 419.759 430.15 418.34C430.24 413.68 432.34 409.34 433.63 404.87C434.84 400.65 435.35 396.23 436.94 392.15C438.53 388.07 441.68 383.82 445.98 382.73Z" fill="black"/>
<path d="M447.48 382.73C447.21 385.39 449.79 387.4 450.81 389.88C451.23 391.036 451.466 392.251 451.51 393.48C452.23 402 451.67 410.57 451.12 419.11C451.013 421.952 450.658 424.779 450.06 427.56C448.62 433.39 445.06 438.45 441.61 443.35C440.417 445.315 438.595 446.819 436.44 447.62L424.54 453.38C423.048 454.038 421.63 454.852 420.31 455.81C418.78 457.013 417.576 458.581 416.81 460.37C414.5 459.19 412.1 458.13 409.81 456.95C409.27 456.68 408.67 456.32 408.57 455.72C408.45 454.91 409.29 454.34 409.87 453.72C410.95 452.65 411.28 451.06 411.87 449.65C413.79 445.06 418.61 442.12 420.34 437.45C421.01 435.66 421.22 433.64 422.4 432.13C423.08 431.381 423.841 430.71 424.67 430.13C426.494 428.57 428.168 426.842 429.67 424.97C430.351 424.267 430.906 423.452 431.31 422.56C431.692 421.188 431.824 419.759 431.7 418.34C431.79 413.68 433.9 409.34 435.19 404.87C436.4 400.65 436.91 396.23 438.5 392.15C440.09 388.07 443.23 383.82 447.48 382.73Z" fill="#00B0FF"/>
<path d="M434.98 331.89C430.848 331.387 426.665 332.251 423.07 334.35C423.6 334.35 424.13 334.41 424.67 334.47C428.636 334.953 432.35 336.668 435.289 339.374C438.228 342.081 440.243 345.641 441.05 349.554C441.858 353.466 441.417 357.534 439.789 361.182C438.162 364.831 435.43 367.877 431.98 369.89C436.883 370.047 441.659 368.309 445.314 365.038C448.97 361.766 451.225 357.212 451.611 352.321C451.997 347.431 450.485 342.579 447.388 338.775C444.291 334.97 439.847 332.504 434.98 331.89Z" fill="#3F3D56"/>
<path d="M440.82 342.5C441.753 344.619 441.807 347.021 440.97 349.18C440.882 348.899 440.775 348.625 440.65 348.36C438.3 343.12 431.03 340.95 424.43 343.51C422.674 344.138 421.069 345.128 419.718 346.414C418.368 347.701 417.302 349.256 416.59 350.98C414.91 345.91 418.33 340.08 424.59 337.64C431.19 335.11 438.46 337.25 440.82 342.5Z" fill="#3F3D56"/>
<g opacity="0.1">
<path d="M440.85 348.76C440.546 345.076 439.18 341.56 436.917 338.639C434.653 335.717 431.591 333.515 428.1 332.3C426.325 332.74 424.621 333.43 423.04 334.35C423.57 334.35 424.1 334.41 424.64 334.47C428.469 334.935 432.068 336.549 434.962 339.1C437.855 341.651 439.908 345.019 440.85 348.76Z" fill="black"/>
<path d="M443.98 334.84C443.674 331.157 442.306 327.642 440.043 324.721C437.78 321.8 434.719 319.597 431.23 318.38C429.454 318.818 427.75 319.508 426.17 320.43C426.697 320.43 427.227 320.47 427.76 320.55C431.591 321.013 435.192 322.627 438.087 325.178C440.983 327.729 443.038 331.098 443.98 334.84Z" fill="black"/>
<path d="M444.03 314.04C443.843 311.818 443.017 309.697 441.65 307.935C440.284 306.173 438.436 304.844 436.33 304.11C435.26 304.377 434.233 304.794 433.28 305.35C433.6 305.35 433.92 305.35 434.28 305.42C436.584 305.708 438.748 306.685 440.488 308.223C442.227 309.761 443.462 311.788 444.03 314.04Z" fill="black"/>
<path d="M451.16 346.18C451.528 350.754 450.237 355.307 447.523 359.007C444.809 362.707 440.853 365.307 436.38 366.33C435.095 367.729 433.609 368.929 431.97 369.89C434.927 369.998 437.869 369.416 440.563 368.191C443.257 366.966 445.628 365.13 447.49 362.83C449.351 360.53 450.652 357.828 451.289 354.938C451.926 352.048 451.882 349.05 451.16 346.18Z" fill="black"/>
</g>
<path d="M997.77 696.04C1023.45 696.04 1044.26 692.037 1044.26 687.1C1044.26 682.162 1023.45 678.16 997.77 678.16C972.095 678.16 951.28 682.162 951.28 687.1C951.28 692.037 972.095 696.04 997.77 696.04Z" fill="#00B0FF"/>
<path d="M996.99 690.39C999.978 690.39 1002.4 687.216 1002.4 683.3C1002.4 679.384 999.978 676.21 996.99 676.21C994.002 676.21 991.58 679.384 991.58 683.3C991.58 687.216 994.002 690.39 996.99 690.39Z" fill="#3F3D56"/>
<path d="M996.99 681.73C999.978 681.73 1002.4 678.556 1002.4 674.64C1002.4 670.724 999.978 667.55 996.99 667.55C994.002 667.55 991.58 670.724 991.58 674.64C991.58 678.556 994.002 681.73 996.99 681.73Z" fill="#3F3D56"/>
<path d="M996.99 673.06C999.978 673.06 1002.4 669.886 1002.4 665.97C1002.4 662.054 999.978 658.88 996.99 658.88C994.002 658.88 991.58 662.054 991.58 665.97C991.58 669.886 994.002 673.06 996.99 673.06Z" fill="#3F3D56"/>
<path d="M996.99 664.4C999.978 664.4 1002.4 661.226 1002.4 657.31C1002.4 653.394 999.978 650.22 996.99 650.22C994.002 650.22 991.58 653.394 991.58 657.31C991.58 661.226 994.002 664.4 996.99 664.4Z" fill="#3F3D56"/>
<path d="M996.99 655.74C999.978 655.74 1002.4 652.566 1002.4 648.65C1002.4 644.734 999.978 641.56 996.99 641.56C994.002 641.56 991.58 644.734 991.58 648.65C991.58 652.566 994.002 655.74 996.99 655.74Z" fill="#3F3D56"/>
<path d="M996.99 647.08C999.978 647.08 1002.4 643.906 1002.4 639.99C1002.4 636.074 999.978 632.9 996.99 632.9C994.002 632.9 991.58 636.074 991.58 639.99C991.58 643.906 994.002 647.08 996.99 647.08Z" fill="#3F3D56"/>
<path d="M996.99 638.42C999.978 638.42 1002.4 635.246 1002.4 631.33C1002.4 627.414 999.978 624.24 996.99 624.24C994.002 624.24 991.58 627.414 991.58 631.33C991.58 635.246 994.002 638.42 996.99 638.42Z" fill="#3F3D56"/>
<path d="M1017.25 572.11C1017.98 571.157 1018.65 570.155 1019.25 569.11L1005.02 566.78L1020.41 566.89C1021.88 563.679 1022.69 560.202 1022.77 556.67C1022.85 553.139 1022.22 549.627 1020.9 546.35L1000.26 557.05L1019.26 543.05C1017.48 539.963 1015.08 537.276 1012.22 535.156C1009.36 533.036 1006.09 531.529 1002.61 530.73C999.142 529.93 995.543 529.854 992.04 530.508C988.537 531.161 985.207 532.529 982.256 534.527C979.306 536.525 976.799 539.109 974.892 542.119C972.985 545.128 971.718 548.499 971.171 552.02C970.625 555.541 970.81 559.136 971.714 562.583C972.619 566.029 974.225 569.252 976.43 572.05C975.262 573.514 974.256 575.1 973.43 576.78L991.9 586.37L972.21 579.77C970.826 583.854 970.484 588.22 971.214 592.47C971.944 596.72 973.723 600.721 976.39 604.11C973.381 607.935 971.51 612.529 970.989 617.367C970.468 622.206 971.32 627.093 973.446 631.47C975.572 635.847 978.886 639.538 983.011 642.12C987.136 644.703 991.904 646.072 996.77 646.072C1001.64 646.072 1006.4 644.703 1010.53 642.12C1014.65 639.538 1017.97 635.847 1020.09 631.47C1022.22 627.093 1023.07 622.206 1022.55 617.367C1022.03 612.529 1020.16 607.935 1017.15 604.11C1020.75 599.541 1022.7 593.895 1022.7 588.08C1022.7 582.265 1020.75 576.619 1017.15 572.05L1017.25 572.11Z" fill="#00B0FF"/>
<path opacity="0.1" d="M970.98 588.11C970.975 593.916 972.93 599.554 976.53 604.11C973.521 607.935 971.65 612.529 971.129 617.367C970.608 622.206 971.459 627.093 973.585 631.47C975.711 635.848 979.026 639.538 983.151 642.12C987.276 644.703 992.044 646.072 996.91 646.072C1001.78 646.072 1006.54 644.703 1010.67 642.12C1014.79 639.538 1018.11 635.848 1020.23 631.47C1022.36 627.093 1023.21 622.206 1022.69 617.367C1022.17 612.529 1020.3 607.935 1017.29 604.11C1020.73 599.71 970.98 585.18 970.98 588.11Z" fill="black"/>
<path d="M185.77 696.04C211.446 696.04 232.26 692.037 232.26 687.1C232.26 682.162 211.446 678.16 185.77 678.16C160.094 678.16 139.28 682.162 139.28 687.1C139.28 692.037 160.094 696.04 185.77 696.04Z" fill="#00B0FF"/>
<path d="M184.99 690.39C187.978 690.39 190.4 687.216 190.4 683.3C190.4 679.384 187.978 676.21 184.99 676.21C182.002 676.21 179.58 679.384 179.58 683.3C179.58 687.216 182.002 690.39 184.99 690.39Z" fill="#3F3D56"/>
<path d="M184.99 681.73C187.978 681.73 190.4 678.556 190.4 674.64C190.4 670.724 187.978 667.55 184.99 667.55C182.002 667.55 179.58 670.724 179.58 674.64C179.58 678.556 182.002 681.73 184.99 681.73Z" fill="#3F3D56"/>
<path d="M184.99 673.06C187.978 673.06 190.4 669.886 190.4 665.97C190.4 662.054 187.978 658.88 184.99 658.88C182.002 658.88 179.58 662.054 179.58 665.97C179.58 669.886 182.002 673.06 184.99 673.06Z" fill="#3F3D56"/>
<path d="M184.99 664.4C187.978 664.4 190.4 661.226 190.4 657.31C190.4 653.394 187.978 650.22 184.99 650.22C182.002 650.22 179.58 653.394 179.58 657.31C179.58 661.226 182.002 664.4 184.99 664.4Z" fill="#3F3D56"/>
<path d="M184.99 655.74C187.978 655.74 190.4 652.566 190.4 648.65C190.4 644.734 187.978 641.56 184.99 641.56C182.002 641.56 179.58 644.734 179.58 648.65C179.58 652.566 182.002 655.74 184.99 655.74Z" fill="#3F3D56"/>
<path d="M184.99 647.08C187.978 647.08 190.4 643.906 190.4 639.99C190.4 636.074 187.978 632.9 184.99 632.9C182.002 632.9 179.58 636.074 179.58 639.99C179.58 643.906 182.002 647.08 184.99 647.08Z" fill="#3F3D56"/>
<path d="M184.99 638.42C187.978 638.42 190.4 635.246 190.4 631.33C190.4 627.414 187.978 624.24 184.99 624.24C182.002 624.24 179.58 627.414 179.58 631.33C179.58 635.246 182.002 638.42 184.99 638.42Z" fill="#3F3D56"/>
<path d="M205.25 572.11C205.985 571.157 206.653 570.155 207.25 569.11L193.02 566.78L208.41 566.89C209.883 563.679 210.686 560.202 210.77 556.67C210.854 553.139 210.218 549.627 208.9 546.35L188.26 557.05L207.26 543.05C205.481 539.963 203.084 537.276 200.221 535.156C197.357 533.036 194.086 531.529 190.614 530.73C187.142 529.93 183.542 529.854 180.04 530.508C176.537 531.161 173.207 532.529 170.256 534.527C167.306 536.525 164.799 539.109 162.892 542.119C160.984 545.128 159.718 548.499 159.171 552.02C158.625 555.541 158.809 559.136 159.714 562.583C160.619 566.029 162.224 569.252 164.43 572.05C163.262 573.514 162.256 575.1 161.43 576.78L179.98 586.38L160.29 579.78C158.911 583.865 158.572 588.229 159.306 592.477C160.039 596.726 161.821 600.724 164.49 604.11C161.481 607.935 159.61 612.529 159.089 617.367C158.568 622.206 159.42 627.093 161.545 631.47C163.671 635.847 166.986 639.538 171.111 642.12C175.236 644.703 180.004 646.072 184.87 646.072C189.736 646.072 194.504 644.703 198.629 642.12C202.754 639.538 206.069 635.847 208.195 631.47C210.321 627.093 211.172 622.206 210.651 617.367C210.13 612.529 208.259 607.935 205.25 604.11C208.846 599.541 210.801 593.895 210.801 588.08C210.801 582.265 208.846 576.619 205.25 572.05V572.11Z" fill="#00B0FF"/>
<path opacity="0.1" d="M158.98 588.11C158.975 593.916 160.93 599.554 164.53 604.11C161.521 607.935 159.65 612.529 159.129 617.367C158.608 622.206 159.459 627.093 161.585 631.47C163.711 635.848 167.026 639.538 171.151 642.12C175.276 644.703 180.044 646.072 184.91 646.072C189.776 646.072 194.544 644.703 198.669 642.12C202.794 639.538 206.109 635.848 208.235 631.47C210.361 627.093 211.212 622.206 210.691 617.367C210.17 612.529 208.299 607.935 205.29 604.11C208.73 599.71 158.98 585.18 158.98 588.11Z" fill="black"/>
<path d="M476.15 282H465.854L466.46 267.465L465.854 233.35H476.351L475.746 266.557L476.15 282ZM508.396 260.097C508.396 256.396 506.815 254.546 503.652 254.546C501.364 254.546 498.942 255.622 496.385 257.776V266.557L496.889 282H486.796L487.301 267.465L486.897 247.48L496.486 246.673V251.821H496.99C499.884 249.264 502.912 247.447 506.074 246.37C509.91 246.37 512.803 247.245 514.755 248.994C516.774 250.744 517.749 253.234 517.682 256.464L517.48 266.557L517.884 282H507.79L508.396 260.097ZM540.991 274.531C542.539 274.531 544.188 274.127 545.937 273.32L546.745 274.127L545.735 279.981C543.246 281.327 540.655 282.135 537.963 282.404C531.167 281.731 527.735 278.434 527.668 272.512L528.072 266.153V253.133H523.328L522.924 252.729L523.429 247.178H527.87V241.323L537.055 238.396L537.761 239.002L537.459 247.178H546.543L546.846 247.682L546.442 253.133H537.358L536.954 270.09C536.954 271.705 537.223 272.849 537.761 273.521C538.367 274.194 539.444 274.531 540.991 274.531ZM558.94 265.75C559.344 272.142 562.439 275.338 568.226 275.338C571.523 275.338 574.921 274.396 578.421 272.512L579.228 273.118L577.916 280.486C574.417 281.966 570.884 282.74 567.318 282.807C561.733 282.807 557.392 281.193 554.297 277.963C551.202 274.733 549.654 270.292 549.654 264.639C549.654 258.92 551.202 254.445 554.297 251.215C557.46 247.918 561.464 246.269 566.308 246.269C571.153 246.269 574.753 247.514 577.108 250.004C579.531 252.426 580.742 255.791 580.742 260.097C580.742 261.443 580.641 262.822 580.439 264.236L578.925 265.649L558.94 265.75ZM566.611 252.83C564.66 252.83 563.011 253.469 561.665 254.748C560.387 256.026 559.546 257.843 559.142 260.198L571.86 259.794L572.062 258.987C571.994 254.882 570.178 252.83 566.611 252.83ZM606.898 246.774C607.369 246.841 608.008 246.908 608.816 246.976V256.161L607.806 256.564C606.932 256.228 605.99 256.06 604.98 256.06C602.087 256.06 599.429 257.91 597.006 261.611V266.557L597.612 282H587.519L588.023 267.465L587.62 247.48L597.208 246.673L597.107 253.637H597.713C600.135 249.129 603.197 246.841 606.898 246.774ZM625.686 272.512H626.292L632.651 252.931L633.963 246.774H642.643L630.935 282H620.034L610.142 247.077L619.529 246.572L620.437 252.426L625.686 272.512ZM652.563 229.615C654.178 229.615 655.423 230.086 656.298 231.028C657.173 231.903 657.61 233.181 657.61 234.864C657.61 236.479 657.139 237.791 656.197 238.8C655.255 239.809 653.943 240.314 652.261 240.314C650.646 240.314 649.367 239.877 648.425 239.002C647.55 238.06 647.113 236.781 647.113 235.166C647.113 233.551 647.618 232.239 648.627 231.23C649.636 230.153 650.949 229.615 652.563 229.615ZM657.307 282H647.214L647.719 267.465L647.315 247.48L657.408 246.673L656.702 266.557L657.307 282ZM673.268 265.75C673.672 272.142 676.767 275.338 682.554 275.338C685.851 275.338 689.25 274.396 692.749 272.512L693.556 273.118L692.244 280.486C688.745 281.966 685.212 282.74 681.646 282.807C676.061 282.807 671.721 281.193 668.625 277.963C665.53 274.733 663.982 270.292 663.982 264.639C663.982 258.92 665.53 254.445 668.625 251.215C671.788 247.918 675.792 246.269 680.636 246.269C685.481 246.269 689.081 247.514 691.436 250.004C693.859 252.426 695.07 255.791 695.07 260.097C695.07 261.443 694.969 262.822 694.767 264.236L693.253 265.649L673.268 265.75ZM680.939 252.83C678.988 252.83 677.339 253.469 675.993 254.748C674.715 256.026 673.874 257.843 673.47 260.198L686.188 259.794L686.39 258.987C686.322 254.882 684.506 252.83 680.939 252.83ZM712.546 271.907H713.252L718.501 252.729L719.712 246.774H729.402L730.209 252.123L734.65 271.806H735.256L740.404 252.729L741.615 246.774H750.093L739.092 282H729.705L724.254 259.391H723.548L717.391 282H707.398L698.314 247.077L707.398 246.572L708.206 252.123L712.546 271.907ZM799.982 245.058C795.339 242.366 790.932 241.021 786.76 241.021C782.588 241.021 779.425 242.366 777.272 245.058C775.186 247.682 774.143 252.056 774.143 258.179C774.143 265.918 775.96 270.83 779.593 272.916C781.477 273.993 783.664 274.531 786.154 274.531C788.711 274.531 791.134 274.194 793.421 273.521L793.623 269.383L793.421 261.813L802.909 261.207L802.707 267.768L802.909 279.679C796.853 281.697 791.268 282.707 786.154 282.707C778.618 282.707 772.932 280.654 769.096 276.55C765.328 272.378 763.444 266.254 763.444 258.179C763.444 250.105 765.631 243.847 770.005 239.406C774.446 234.897 780.704 232.643 788.778 232.643C794.094 232.71 798.872 233.72 803.111 235.671L800.992 244.856L799.982 245.058ZM841.893 275.136C842.498 275.136 843.205 275.036 844.013 274.834L844.719 275.439L843.811 280.688C842.196 281.697 840.345 282.336 838.259 282.606C835.097 282.336 833.112 280.452 832.304 276.953H831.497C828.603 279.712 825.642 281.529 822.614 282.404C818.846 282.404 815.953 281.563 813.934 279.88C811.915 278.131 810.906 275.607 810.906 272.31L811.108 263.428L810.805 247.48L820.495 246.673L820.192 268.979C820.192 272.546 821.706 274.329 824.734 274.329C826.887 274.329 829.074 273.353 831.295 271.402V247.48L840.884 246.673L840.278 272.916C840.278 274.396 840.816 275.136 841.893 275.136ZM855.696 229.615C857.311 229.615 858.556 230.086 859.431 231.028C860.306 231.903 860.743 233.181 860.743 234.864C860.743 236.479 860.272 237.791 859.33 238.8C858.388 239.809 857.076 240.314 855.393 240.314C853.779 240.314 852.5 239.877 851.558 239.002C850.683 238.06 850.246 236.781 850.246 235.166C850.246 233.551 850.75 232.239 851.76 231.23C852.769 230.153 854.081 229.615 855.696 229.615ZM860.44 282H850.347L850.851 267.465L850.448 247.48L860.541 246.673L859.835 266.557L860.44 282ZM898.909 272.916C898.977 273.791 899.111 274.396 899.313 274.733C899.515 275.002 899.919 275.136 900.524 275.136C901.13 275.136 901.837 275.036 902.644 274.834L903.351 275.439L902.442 280.688C900.827 281.697 898.977 282.336 896.891 282.606C893.661 282.336 891.609 280.587 890.734 277.357H890.128C887.706 279.645 885.182 281.361 882.558 282.505C877.579 282.505 873.743 280.957 871.052 277.862C868.36 274.699 867.014 270.224 867.014 264.437C867.014 258.65 868.562 254.176 871.657 251.013C874.82 247.85 879.16 246.269 884.678 246.269C886.158 246.269 887.773 246.404 889.523 246.673L889.422 229.716L899.414 228.908L898.708 266.557L898.909 272.916ZM876.401 262.822C876.401 270.695 878.79 274.632 883.567 274.632C885.721 274.632 887.773 273.589 889.724 271.503L889.825 267.364L889.624 254.344C887.672 253.469 885.822 253.032 884.072 253.032C878.958 253.032 876.401 256.295 876.401 262.822ZM915.952 265.75C916.356 272.142 919.451 275.338 925.238 275.338C928.535 275.338 931.933 274.396 935.432 272.512L936.24 273.118L934.928 280.486C931.428 281.966 927.896 282.74 924.329 282.807C918.744 282.807 914.404 281.193 911.309 277.963C908.214 274.733 906.666 270.292 906.666 264.639C906.666 258.92 908.214 254.445 911.309 251.215C914.471 247.918 918.475 246.269 923.32 246.269C928.165 246.269 931.765 247.514 934.12 250.004C936.543 252.426 937.754 255.791 937.754 260.097C937.754 261.443 937.653 262.822 937.451 264.236L935.937 265.649L915.952 265.75ZM923.623 252.83C921.671 252.83 920.023 253.469 918.677 254.748C917.399 256.026 916.557 257.843 916.154 260.198L928.871 259.794L929.073 258.987C929.006 254.882 927.189 252.83 923.623 252.83Z" fill="#00B0FF"/>
</g>
<defs>
<linearGradient id="paint0_linear_285_2" x1="411.19" y1="569.36" x2="411.19" y2="298.21" gradientUnits="userSpaceOnUse">
<stop stop-color="#00B0FF"/>
<stop offset="0.54" stop-color="#808080" stop-opacity="0.12"/>
<stop offset="1" stop-color="#808080" stop-opacity="0.1"/>
</linearGradient>
<clipPath id="clip0_285_2">
<rect width="1137.97" height="736.21" fill="white"/>
</clipPath>
</defs>
</svg>
