<svg width="326" height="265" viewBox="0 0 326 265" fill="none" xmlns="http://www.w3.org/2000/svg">
<g clip-path="url(#clip0_208_371)">
<path d="M301.626 240.87C290.945 249.572 277.932 258.387 265.138 262.544C261.45 263.778 257.644 264.565 253.792 264.892C250.19 265.202 246.565 264.901 243.052 264.001C233.818 261.543 225.254 257.241 216.967 252.214C214.259 250.569 211.583 248.848 208.923 247.09C204.58 244.219 200.28 241.247 195.968 238.346C195.323 237.907 194.681 237.476 194.036 237.049H194.032C192.991 236.35 191.948 235.661 190.902 234.981C190.718 234.86 190.534 234.743 190.346 234.621C188.37 233.34 186.361 232.089 184.317 230.867C184.067 230.72 183.816 230.569 183.566 230.423C179.612 228.077 175.548 225.949 171.39 224.048C168.659 222.818 165.893 221.708 163.099 220.762H163.095C162.027 220.402 160.955 220.063 159.879 219.754C156.653 218.807 153.365 218.118 150.043 217.694C145.466 217.101 140.836 217.141 136.267 217.811C135.958 217.858 135.653 217.904 135.344 217.958C122.98 220.076 111.697 227.217 99.2783 228.899C98.8753 228.954 98.4762 229.004 98.0732 229.042C97.9011 229.058 97.7289 229.079 97.5568 229.092C93.948 229.422 90.3162 229.327 86.7269 228.807C76.6991 227.392 66.9335 223.002 58.142 217.468C37.5896 204.53 20.9222 184.644 10.7888 161.614C9.04866 157.668 7.5037 153.626 6.16029 149.505C2.40424 138.079 0.335769 126.097 0.0293538 113.99C-0.921389 71.9822 21.3917 29.8365 56.4244 10.8377C91.4611 -8.16117 137.551 -1.87845 165.807 27.3083C182.948 45.0138 192.866 69.0061 205.765 90.441C218.665 111.872 236.999 132.344 260.646 135.466C272.693 137.057 285.299 133.981 296.845 137.982C303.238 140.2 308.692 144.445 313.086 149.853C316.04 153.522 318.512 157.606 320.434 161.991C321.842 165.161 322.985 168.458 323.849 171.844C324.01 172.468 324.158 173.092 324.303 173.715C330.054 198.846 320.864 225.191 301.626 240.87Z" fill="#F2F2F2"/>
<path d="M109.224 195.376H72.4462C66.9361 195.376 62.4692 200.155 62.4692 206.05V206.05C62.4692 211.945 66.9361 216.723 72.4462 216.723H109.224C114.734 216.723 119.201 211.945 119.201 206.05C119.201 200.155 114.734 195.376 109.224 195.376Z" fill="#282C34"/>
<path d="M98.0731 211.282V229.042C94.2953 229.433 90.4877 229.354 86.7268 228.807V211.282H98.0731Z" fill="#282C34"/>
<path d="M136.267 217.811C135.958 217.858 135.653 217.904 135.344 217.958C122.98 220.076 111.697 227.217 99.2782 228.899C98.8752 228.954 98.4762 229.004 98.0732 229.042C97.901 229.058 97.7289 229.079 97.5567 229.092C94.5245 225.915 91.4923 222.533 88.644 219.03C87.0985 217.133 85.604 215.2 84.1993 213.241C80.5529 208.184 77.462 202.986 75.4196 197.879C75.627 195.431 74.2028 189.767 73.5221 185.431L73.5182 185.427C73.2286 183.606 73.0721 182.024 73.2169 181.007C74.0464 175.138 78.5262 175.812 79.9034 170.061C81.1457 168.958 82.4685 167.963 83.859 167.085C84.0898 166.939 84.3245 166.792 84.5671 166.646L99.513 155.595L105.225 161.589L113.919 170.714L123.34 180.597L115.343 189.24C115.343 189.24 122.026 197.482 129.839 208.469C131.936 211.42 134.115 214.572 136.267 217.811Z" fill="#2F2E41"/>
<path d="M265.138 211.282V262.544C261.45 263.778 257.644 264.565 253.792 264.892V211.282H265.138Z" fill="#282C34"/>
<path d="M279.81 207.096H243.032C237.522 207.096 233.055 211.875 233.055 217.77V217.77C233.055 223.664 237.522 228.443 243.032 228.443H279.81C285.32 228.443 289.787 223.664 289.787 217.77C289.787 211.875 285.32 207.096 279.81 207.096Z" fill="#282C34"/>
<path d="M190.346 234.621C188.37 233.34 186.36 232.089 184.317 230.867C184.066 230.72 183.816 230.569 183.566 230.423L184.912 229.808L188.542 228.138L188.578 228.121L188.617 228.263L190.346 234.621Z" fill="#FFB6B6"/>
<path d="M195.968 238.346C195.323 237.907 194.681 237.476 194.036 237.049H194.032C192.991 236.35 191.948 235.661 190.902 234.981C190.718 234.86 190.534 234.743 190.346 234.621C188.37 233.34 186.36 232.089 184.317 230.867C184.066 230.72 183.816 230.569 183.566 230.423C179.612 228.077 175.548 225.949 171.39 224.048C168.659 222.818 165.893 221.708 163.099 220.762H163.095L160.9 216.832L151.021 199.131L148.85 195.242C148.85 195.242 141.443 197.586 130.962 199.834C127.147 200.654 122.929 201.458 118.504 202.136C113.774 202.856 108.813 203.429 103.883 203.706C101.532 203.84 99.1882 203.907 96.8798 203.886C90.9132 203.844 85.1813 203.245 80.1616 201.822C78.487 200.14 73.4399 197.85 69.8247 195.753H69.8208C68.3027 194.874 67.0429 194.033 66.3817 193.283C62.5709 188.972 65.8261 185.611 62.4378 180.906C62.3922 179.18 62.4747 177.453 62.6843 175.741C62.7196 175.457 62.7548 175.168 62.7978 174.875L63.8659 155.47L71.8005 154.348L83.8746 152.64L96.9541 150.79L98.3939 162.853C98.3939 162.853 108.578 162.301 121.482 162.485C142.206 162.786 169.938 164.997 173.694 174.481C174.046 175.373 174.399 176.273 174.751 177.173C175.588 179.324 176.417 181.487 177.239 183.66C180.217 191.53 183.057 199.474 185.651 206.983C187.263 211.654 188.781 216.158 190.178 220.373C191.301 223.764 192.341 226.97 193.292 229.921C194.161 232.616 194.947 235.098 195.647 237.325C195.757 237.673 195.863 238.016 195.968 238.346Z" fill="#5D5A8A"/>
<path d="M122.978 120.776L97.9163 98.005L114.222 80.3511L125.597 100.285L167.764 109.228C169.032 108.207 170.55 107.603 172.134 107.489C173.717 107.376 175.297 107.757 176.681 108.588C178.065 109.418 179.193 110.661 179.928 112.166C180.663 113.67 180.973 115.371 180.821 117.061C180.668 118.751 180.059 120.356 179.067 121.682C178.076 123.008 176.746 123.996 175.239 124.527C173.731 125.058 172.112 125.108 170.579 124.672C169.045 124.235 167.664 123.331 166.602 122.069L122.978 120.776Z" fill="#A0616A"/>
<path d="M75.7673 68.0789C72.871 78.1591 100.455 102.201 100.455 102.201C100.762 99.7806 116.401 120.648 117.465 118.759C120.489 113.387 123.816 100.11 127.308 98.4136C129.304 97.4431 117.851 83.9548 117.851 83.9548C117.851 83.9548 112.008 75.6855 104.294 65.2053C102.165 62.1991 99.3592 59.8181 96.1382 58.2841C92.9172 56.75 89.3858 56.1128 85.8727 56.4316C85.8727 56.4316 78.6636 57.9987 75.7673 68.0789Z" fill="#282C34"/>
<path d="M87.9633 45.7635C97.3249 45.7635 104.914 37.6446 104.914 27.6294C104.914 17.6143 97.3249 9.49536 87.9633 9.49536C78.6017 9.49536 71.0127 17.6143 71.0127 27.6294C71.0127 37.6446 78.6017 45.7635 87.9633 45.7635Z" fill="#A0616A"/>
<path d="M96.4387 57.7488C100.09 60.0713 102.275 64.3387 103.529 68.6812C105.851 76.7208 107.248 85.033 107.69 93.4341L109.015 118.586L125.419 172.14C111.202 185.01 57.7638 175.065 57.7638 175.065C57.7638 175.065 56.1234 174.48 57.7638 172.725C59.4042 170.97 61.0011 172.525 59.3608 170.77C57.7204 169.015 58.8512 170.97 59.398 169.215C59.9448 167.461 59.398 168.631 58.8512 168.046C58.3044 167.461 63.0842 162.196 63.0842 162.196L58.7099 131.455L53.2419 69.4481C59.8035 60.6736 72.9996 55.501 72.9996 55.501L76.4093 48.9351L93.4578 50.3942L96.4387 57.7488Z" fill="#282C34"/>
<path d="M101.936 17.9951C103.254 19.0463 104.23 20.5131 104.727 22.189C104.918 19.4503 104.93 16.7006 104.763 13.9601C104.564 12.0344 103.296 11.6012 101.829 11.0993C100.504 10.6458 99.0049 10.1335 98.6017 8.26407C93.2734 2.71869 83.9979 2.99832 77.65 4.93263C74.1571 5.99705 72.1472 7.36461 71.9674 8.16574L71.9301 8.33066L71.7882 8.40653C69.0958 9.84676 68.5717 14.3947 68.6063 17.9563C68.6719 24.6665 70.8376 32.2876 72.0576 32.9067C72.1222 32.9395 72.1385 32.9267 72.1665 32.9018C74.0035 31.3311 76.2448 33.0211 77.2298 33.9398C77.8107 29.7693 79.6812 25.9273 82.5426 23.0275C85.404 20.1277 89.0912 18.3374 93.0153 17.9424C94.2968 17.8099 95.5681 17.5818 96.8199 17.2599C97.4549 17.0842 98.1076 16.9925 98.7635 16.987C99.8925 16.9687 101 17.3205 101.936 17.9951Z" fill="#2F2E41"/>
<path d="M80.578 148.097L75.3928 145.256C75.115 145.044 74.9177 144.732 74.8368 144.378C74.756 144.023 74.7971 143.649 74.9526 143.325C75.1081 143 75.3677 142.746 75.6838 142.609C76 142.472 76.3517 142.461 76.6747 142.578L81.8599 145.419C82.1377 145.631 82.335 145.943 82.4158 146.297C82.4966 146.652 82.4555 147.025 82.3 147.35C82.1445 147.675 81.885 147.929 81.5688 148.066C81.2527 148.203 80.901 148.214 80.578 148.097L80.578 148.097Z" fill="#72CFFF"/>
<path d="M63.127 140.486L54.5973 106.514L77.3911 101.897L76.1654 125.216L106.115 158.206C107.7 158.137 109.27 158.563 110.633 159.432C111.997 160.3 113.094 161.575 113.792 163.099C114.49 164.624 114.759 166.333 114.564 168.018C114.37 169.703 113.722 171.291 112.699 172.588C111.675 173.886 110.321 174.837 108.802 175.325C107.282 175.814 105.662 175.819 104.14 175.34C102.618 174.86 101.259 173.917 100.228 172.626C99.1983 171.335 98.5417 169.751 98.3386 168.067L63.127 140.486Z" fill="#A0616A"/>
<path d="M52.2647 68.4239C44.5277 74.9584 54.4582 111.509 54.4582 111.509C55.9957 109.704 57.7824 136.383 59.6616 135.474C65.0028 132.893 74.7924 123.99 78.5664 124.715C80.7248 125.13 78.4635 107.069 78.4635 107.069C78.4635 107.069 78.0476 96.7127 77.2659 83.3995C77.1102 79.6313 76.0658 75.9665 74.23 72.7463C72.3942 69.526 69.8267 66.855 66.7664 64.9819C66.7664 64.9819 60.0018 61.8895 52.2647 68.4239Z" fill="#282C34"/>
<path d="M320.434 161.991L10.7887 161.615C9.04853 157.668 7.50356 153.626 6.16016 149.505L313.086 149.853C316.04 153.523 318.512 157.606 320.434 161.991Z" fill="#282C34"/>
<path d="M221.811 249.815C220.21 250.644 218.596 251.443 216.967 252.214C214.259 250.569 211.583 248.848 208.923 247.09L218.79 242.453L221.811 249.815Z" fill="#FFB6B6"/>
<path d="M293.754 192.136C292.15 194.439 290.495 196.695 288.789 198.905C287.216 200.943 285.602 202.942 283.945 204.903C283.261 205.715 282.568 206.523 281.86 207.322C280.557 208.816 279.226 210.286 277.865 211.73C275.416 212.554 270.455 214.007 265.138 215.363C261.268 216.346 257.211 217.28 253.792 217.874C251.877 218.242 249.941 218.463 247.997 218.536C245.689 218.556 243.345 218.489 240.994 218.356C238.341 218.205 235.684 217.97 233.059 217.669C226.232 216.903 219.62 215.71 213.915 214.484C211.826 214.04 209.862 213.588 208.054 213.149C204.631 212.324 201.767 211.554 199.693 210.968C197.357 210.315 196.027 209.892 196.027 209.892L190.178 220.373L187.142 225.81L184.912 229.808L184.317 230.867C184.066 230.72 183.816 230.569 183.566 230.423C179.612 228.077 175.548 225.949 171.39 224.048C168.659 222.817 165.893 221.708 163.099 220.762H163.095C162.027 220.402 160.955 220.063 159.879 219.754C160.216 218.787 160.556 217.813 160.9 216.832C161.542 215.003 162.197 213.157 162.865 211.294C164.308 207.259 165.803 203.166 167.34 199.093C168.6 195.749 169.884 192.417 171.183 189.131C171.781 187.616 172.998 186.285 174.7 185.117C175.513 184.568 176.362 184.082 177.239 183.66C182.11 181.287 189.286 179.743 197.193 178.751C197.846 178.671 198.504 178.592 199.165 178.516C205.711 177.78 212.655 177.399 219.15 177.223C222.401 177.135 225.539 177.101 228.458 177.097C229.401 177.097 230.318 177.1 231.209 177.106H231.212C233.619 177.118 235.833 177.156 237.782 177.198C238.161 177.206 238.529 177.219 238.889 177.227H238.893C239.135 177.231 239.374 177.24 239.609 177.244C243.869 177.361 246.483 177.503 246.483 177.503L247.496 168.998L247.704 167.282L247.899 165.649V165.645L247.923 165.44L248.083 165.436L250.9 165.377L274.579 164.883L287.514 164.611L285.463 174.012L282.079 189.525C282.423 191.977 293.871 190.056 293.754 192.136Z" fill="#989898"/>
<path d="M224.729 248.266C223.763 248.794 222.789 249.313 221.811 249.815C220.21 250.644 218.596 251.443 216.967 252.214C214.259 250.569 211.583 248.848 208.923 247.09C204.58 244.219 200.28 241.247 195.968 238.346C195.323 237.907 194.681 237.476 194.036 237.049H194.032C192.255 234.228 190.444 231.289 188.617 228.263C188.589 228.221 188.566 228.179 188.542 228.137C188.073 227.367 187.606 226.592 187.142 225.81C184.219 220.913 181.281 215.806 178.428 210.591L185.651 206.983L199.079 200.278L201.395 199.122L208.054 213.149L213.993 225.66L215.316 228.443L224.729 248.266Z" fill="#2F2E41"/>
<path d="M226.753 180.926L260.988 145.606L270.477 116.863L256.48 110.352C249.291 117.719 241.52 140.666 241.52 140.666L217.962 172.731C217.778 172.798 217.595 172.869 217.414 172.955C216.353 173.455 215.431 174.24 214.736 175.234C214.042 176.227 213.598 177.395 213.449 178.626C213.3 179.856 213.45 181.107 213.884 182.257C214.319 183.407 215.023 184.418 215.93 185.192C216.836 185.965 217.914 186.476 219.059 186.674C220.204 186.872 221.377 186.751 222.465 186.322C223.553 185.893 224.52 185.171 225.271 184.226C226.022 183.281 226.532 182.144 226.753 180.926Z" fill="#FFB8B8"/>
<path d="M252.542 113.561L270.295 119.591L270.362 119.579C276.97 118.395 282.453 106.849 285.889 97.3719C287.019 94.246 286.998 90.7775 285.83 87.6676C284.661 84.5576 282.433 82.0383 279.595 80.6189C277.494 79.587 275.166 79.2042 272.873 79.5137C270.58 79.8232 268.414 80.8127 266.619 82.3704L257.502 90.3396L252.542 113.561Z" fill="#72CFFF"/>
<path d="M293.683 192.56L293.786 192.413C299.326 184.554 291.75 165.092 290.604 162.269L295.755 160.637L294.857 150.146L294.425 145.468L298.429 141.4L298.442 141.296L301.196 120.329L304.8 106.452C306.158 101.205 306.187 95.6671 304.883 90.4051C303.579 85.1432 300.99 80.3471 297.381 76.5094L290.015 68.6851L281.19 53.907L266.393 53.4983L261.072 63.6105C256.124 64.6908 251.687 67.5941 248.534 71.8144C245.381 76.0348 243.711 81.3048 243.817 86.7065L244.318 113.627L239.008 146.982L238.859 153.04L233.648 158.923L234.612 164.871L230.714 166.532L228.806 174.984C228.078 175.959 223.267 182.463 223.224 184.277C223.217 184.549 223.398 184.817 223.795 185.12C226.908 187.504 244.311 192.668 252.143 189.563C260.486 186.259 293.183 192.465 293.513 192.528L293.683 192.56Z" fill="#72CFFF"/>
<path d="M272.499 48.968C283.326 48.968 292.102 39.5786 292.102 27.9962C292.102 16.4138 283.326 7.02441 272.499 7.02441C261.673 7.02441 252.896 16.4138 252.896 27.9962C252.896 39.5786 261.673 48.968 272.499 48.968Z" fill="#FFB8B8"/>
<path d="M270.108 49.2485C273.143 49.2991 276.178 49.0723 279.177 48.5704C282.15 47.9236 288.802 42.7091 290.656 39.5713C292.034 37.2399 292.915 33.5993 293.411 30.9559C294.08 27.4578 294.054 23.8485 293.336 20.3617C292.618 16.8749 291.224 13.5883 289.243 10.7147C288.481 9.51274 287.431 8.55326 286.201 7.93775C286.093 7.89218 285.98 7.85179 285.867 7.81726C284.076 7.3131 282.467 6.24776 281.246 4.75799C281.009 4.45667 280.752 4.17398 280.477 3.91212C279.097 2.66621 277.461 1.78736 275.703 1.34743C272.865 0.534821 268.758 1.34145 263.495 3.74723C260.852 4.95594 257.96 4.51851 255.736 4.00233C255.611 3.97655 255.482 3.98616 255.362 4.03022C255.242 4.07428 255.134 4.15125 255.051 4.25347C254.104 5.20392 252.857 5.73594 251.559 5.7426C250.764 5.77995 249.93 6.9576 248.921 8.49332C248.693 8.84192 248.426 9.24878 248.233 9.49624L248.207 9.02081L247.758 9.55118C247.051 10.3848 246.553 11.3962 246.309 12.4912C246.066 13.5862 246.086 14.7293 246.367 15.8139C246.648 16.8986 247.181 17.8895 247.916 18.6945C248.652 19.4994 249.565 20.0922 250.572 20.4177C251.372 20.6453 252.192 20.785 253.018 20.8346C253.518 20.8827 254.036 20.9326 254.532 21.0247C256.124 21.3735 257.605 22.1581 258.829 23.3018C260.053 24.4455 260.979 25.9093 261.517 27.5502C261.644 27.9295 261.851 28.2725 262.122 28.5527C262.392 28.8328 262.72 29.0427 263.078 29.1661C263.437 29.2895 263.817 29.3231 264.19 29.2643C264.562 29.2055 264.917 29.0559 265.227 28.827C265.744 28.3964 266.351 28.106 266.995 27.9805C267.639 27.855 268.303 27.898 268.928 28.106C269.469 28.4276 269.889 28.9382 270.12 29.5522C270.4 30.2362 270.864 30.8156 271.453 31.2163C273.468 32.3276 273.607 37.2508 272.883 41.3549C272.186 45.3109 270.807 48.1727 269.53 48.3142C268.547 48.4229 268.435 48.4976 268.364 48.6836L268.3 48.85L268.411 49.0058C268.953 49.2163 269.532 49.2991 270.108 49.2485Z" fill="#2F2E41"/>
<path d="M257.41 107.221L249.852 91.0991C238.88 91.9009 217.106 105.472 217.106 105.472L175.907 114.816C174.687 114.315 173.365 114.165 172.073 114.384C170.782 114.603 169.567 115.182 168.551 116.062C167.535 116.943 166.754 118.094 166.286 119.401C165.819 120.707 165.681 122.122 165.887 123.503C166.093 124.885 166.635 126.184 167.46 127.269C168.284 128.355 169.361 129.189 170.583 129.688C171.805 130.187 173.127 130.333 174.418 130.111C175.709 129.889 176.923 129.307 177.937 128.423L230.343 124.405L257.41 107.221Z" fill="#FFB8B8"/>
<path d="M254.362 109.868L274.102 94.1737L277.579 80.7682C278.253 78.1338 278.224 75.3503 277.497 72.7324C276.769 70.1144 275.372 67.7662 273.462 65.9533C270.859 63.5143 267.486 62.2241 264.027 62.3435C260.568 62.4629 257.281 63.983 254.829 66.5964C247.401 74.5288 238.928 85.5953 240.748 93.269L240.767 93.3468L254.362 109.868Z" fill="#72CFFF"/>
<path d="M229.925 151.845H177.106V159.379H229.925V151.845Z" fill="white"/>
<path d="M94.9431 151.845H42.124V159.379H94.9431V151.845Z" fill="white"/>
<path d="M101.111 115.613V151.486C101.111 151.943 101.281 152.382 101.583 152.705C101.885 153.028 102.295 153.21 102.722 153.21H152.413C152.841 153.21 153.25 153.028 153.552 152.705C153.855 152.382 154.024 151.943 154.025 151.486V115.613C154.024 115.156 153.854 114.719 153.552 114.396C153.25 114.073 152.84 113.891 152.413 113.891H102.722C102.295 113.891 101.886 114.073 101.584 114.396C101.282 114.719 101.112 115.156 101.111 115.613Z" fill="#282C34"/>
<path d="M102.276 116.059V151.043C102.277 151.288 102.368 151.522 102.529 151.695C102.691 151.867 102.909 151.964 103.138 151.965H152C152.228 151.964 152.447 151.867 152.608 151.695C152.77 151.522 152.86 151.288 152.861 151.043V116.059C152.861 115.815 152.77 115.58 152.609 115.407C152.447 115.234 152.228 115.137 152 115.136H103.138C102.909 115.137 102.69 115.234 102.529 115.407C102.367 115.58 102.277 115.815 102.276 116.059Z" fill="#72CFFF"/>
<path d="M100.072 158.482C100.163 158.604 100.278 158.703 100.41 158.77C100.542 158.838 100.686 158.872 100.832 158.871H154.039C154.185 158.871 154.328 158.836 154.46 158.769C154.591 158.702 154.707 158.605 154.798 158.484C154.89 158.363 154.955 158.222 154.99 158.07C155.024 157.919 155.026 157.762 154.996 157.609L154.17 153.412C154.136 153.241 154.062 153.082 153.956 152.949C153.849 152.816 153.713 152.714 153.561 152.651C153.45 152.605 153.332 152.581 153.213 152.581H101.655C101.536 152.581 101.418 152.605 101.307 152.651C101.154 152.714 101.018 152.816 100.912 152.949C100.806 153.082 100.732 153.241 100.698 153.412L99.8716 157.609C99.8423 157.761 99.845 157.919 99.8795 158.07C99.9141 158.221 99.9797 158.362 100.072 158.482Z" fill="#2F2E41"/>
<path d="M151.387 154.389H152.644C152.75 154.389 152.835 154.297 152.835 154.185V153.541C152.835 153.429 152.75 153.337 152.644 153.337H151.387C151.282 153.337 151.196 153.429 151.196 153.541V154.185C151.196 154.297 151.282 154.389 151.387 154.389Z" fill="#282C34"/>
<path d="M148.11 154.389H149.367C149.472 154.389 149.558 154.297 149.558 154.185V153.541C149.558 153.429 149.472 153.337 149.367 153.337H148.11C148.004 153.337 147.919 153.429 147.919 153.541V154.185C147.919 154.297 148.004 154.389 148.11 154.389Z" fill="#282C34"/>
<path d="M144.833 154.389H146.089C146.195 154.389 146.28 154.297 146.28 154.185V153.541C146.28 153.429 146.195 153.337 146.089 153.337H144.833C144.727 153.337 144.642 153.429 144.642 153.541V154.185C144.642 154.297 144.727 154.389 144.833 154.389Z" fill="#282C34"/>
<path d="M141.555 154.389H142.812C142.917 154.389 143.003 154.297 143.003 154.185V153.541C143.003 153.429 142.917 153.337 142.812 153.337H141.555C141.449 153.337 141.364 153.429 141.364 153.541V154.185C141.364 154.297 141.449 154.389 141.555 154.389Z" fill="#282C34"/>
<path d="M138.277 154.389H139.534C139.64 154.389 139.725 154.297 139.725 154.185V153.541C139.725 153.429 139.64 153.337 139.534 153.337H138.277C138.172 153.337 138.086 153.429 138.086 153.541V154.185C138.086 154.297 138.172 154.389 138.277 154.389Z" fill="#282C34"/>
<path d="M135 154.389H136.257C136.362 154.389 136.448 154.297 136.448 154.185V153.541C136.448 153.429 136.362 153.337 136.257 153.337H135C134.895 153.337 134.809 153.429 134.809 153.541V154.185C134.809 154.297 134.895 154.389 135 154.389Z" fill="#282C34"/>
<path d="M131.722 154.389H132.979C133.085 154.389 133.17 154.297 133.17 154.185V153.541C133.17 153.429 133.085 153.337 132.979 153.337H131.722C131.617 153.337 131.531 153.429 131.531 153.541V154.185C131.531 154.297 131.617 154.389 131.722 154.389Z" fill="#282C34"/>
<path d="M128.445 154.389H129.702C129.807 154.389 129.893 154.297 129.893 154.185V153.541C129.893 153.429 129.807 153.337 129.702 153.337H128.445C128.339 153.337 128.254 153.429 128.254 153.541V154.185C128.254 154.297 128.339 154.389 128.445 154.389Z" fill="#282C34"/>
<path d="M125.167 154.389H126.424C126.53 154.389 126.615 154.297 126.615 154.185V153.541C126.615 153.429 126.53 153.337 126.424 153.337H125.167C125.062 153.337 124.976 153.429 124.976 153.541V154.185C124.976 154.297 125.062 154.389 125.167 154.389Z" fill="#282C34"/>
<path d="M121.89 154.389H123.147C123.252 154.389 123.338 154.297 123.338 154.185V153.541C123.338 153.429 123.252 153.337 123.147 153.337H121.89C121.784 153.337 121.699 153.429 121.699 153.541V154.185C121.699 154.297 121.784 154.389 121.89 154.389Z" fill="#282C34"/>
<path d="M118.612 154.389H119.869C119.975 154.389 120.06 154.297 120.06 154.185V153.541C120.06 153.429 119.975 153.337 119.869 153.337H118.612C118.507 153.337 118.421 153.429 118.421 153.541V154.185C118.421 154.297 118.507 154.389 118.612 154.389Z" fill="#282C34"/>
<path d="M115.335 154.389H116.592C116.697 154.389 116.783 154.297 116.783 154.185V153.541C116.783 153.429 116.697 153.337 116.592 153.337H115.335C115.229 153.337 115.144 153.429 115.144 153.541V154.185C115.144 154.297 115.229 154.389 115.335 154.389Z" fill="#282C34"/>
<path d="M112.057 154.389H113.314C113.42 154.389 113.505 154.297 113.505 154.185V153.541C113.505 153.429 113.42 153.337 113.314 153.337H112.057C111.952 153.337 111.866 153.429 111.866 153.541V154.185C111.866 154.297 111.952 154.389 112.057 154.389Z" fill="#282C34"/>
<path d="M108.78 154.389H110.037C110.142 154.389 110.228 154.297 110.228 154.185V153.541C110.228 153.429 110.142 153.337 110.037 153.337H108.78C108.674 153.337 108.589 153.429 108.589 153.541V154.185C108.589 154.297 108.674 154.389 108.78 154.389Z" fill="#282C34"/>
<path d="M105.502 154.389H106.759C106.865 154.389 106.95 154.297 106.95 154.185V153.541C106.95 153.429 106.865 153.337 106.759 153.337H105.502C105.397 153.337 105.311 153.429 105.311 153.541V154.185C105.311 154.297 105.397 154.389 105.502 154.389Z" fill="#282C34"/>
<path d="M102.225 154.389H103.482C103.587 154.389 103.673 154.297 103.673 154.185V153.541C103.673 153.429 103.587 153.337 103.482 153.337H102.225C102.119 153.337 102.034 153.429 102.034 153.541V154.185C102.034 154.297 102.119 154.389 102.225 154.389Z" fill="#282C34"/>
<path d="M151.426 156.142H152.683C152.788 156.142 152.874 156.051 152.874 155.938V155.295C152.874 155.182 152.788 155.09 152.683 155.09H151.426C151.321 155.09 151.235 155.182 151.235 155.295V155.938C151.235 156.051 151.321 156.142 151.426 156.142Z" fill="#282C34"/>
<path d="M148.149 156.142H149.405C149.511 156.142 149.596 156.051 149.596 155.938V155.295C149.596 155.182 149.511 155.09 149.405 155.09H148.149C148.043 155.09 147.958 155.182 147.958 155.295V155.938C147.958 156.051 148.043 156.142 148.149 156.142Z" fill="#282C34"/>
<path d="M144.871 156.142H146.128C146.233 156.142 146.319 156.051 146.319 155.938V155.295C146.319 155.182 146.233 155.09 146.128 155.09H144.871C144.766 155.09 144.68 155.182 144.68 155.295V155.938C144.68 156.051 144.766 156.142 144.871 156.142Z" fill="#282C34"/>
<path d="M141.594 156.142H142.851C142.956 156.142 143.042 156.051 143.042 155.938V155.295C143.042 155.182 142.956 155.09 142.851 155.09H141.594C141.488 155.09 141.403 155.182 141.403 155.295V155.938C141.403 156.051 141.488 156.142 141.594 156.142Z" fill="#282C34"/>
<path d="M138.316 156.142H139.573C139.678 156.142 139.764 156.051 139.764 155.938V155.295C139.764 155.182 139.678 155.09 139.573 155.09H138.316C138.211 155.09 138.125 155.182 138.125 155.295V155.938C138.125 156.051 138.211 156.142 138.316 156.142Z" fill="#282C34"/>
<path d="M135.039 156.142H136.295C136.401 156.142 136.486 156.051 136.486 155.938V155.295C136.486 155.182 136.401 155.09 136.295 155.09H135.039C134.933 155.09 134.848 155.182 134.848 155.295V155.938C134.848 156.051 134.933 156.142 135.039 156.142Z" fill="#282C34"/>
<path d="M131.761 156.142H133.018C133.123 156.142 133.209 156.051 133.209 155.938V155.295C133.209 155.182 133.123 155.09 133.018 155.09H131.761C131.656 155.09 131.57 155.182 131.57 155.295V155.938C131.57 156.051 131.656 156.142 131.761 156.142Z" fill="#282C34"/>
<path d="M128.484 156.142H129.74C129.846 156.142 129.931 156.051 129.931 155.938V155.295C129.931 155.182 129.846 155.09 129.74 155.09H128.484C128.378 155.09 128.293 155.182 128.293 155.295V155.938C128.293 156.051 128.378 156.142 128.484 156.142Z" fill="#282C34"/>
<path d="M125.206 156.142H126.463C126.568 156.142 126.654 156.051 126.654 155.938V155.295C126.654 155.182 126.568 155.09 126.463 155.09H125.206C125.101 155.09 125.015 155.182 125.015 155.295V155.938C125.015 156.051 125.101 156.142 125.206 156.142Z" fill="#282C34"/>
<path d="M121.929 156.142H123.185C123.291 156.142 123.376 156.051 123.376 155.938V155.295C123.376 155.182 123.291 155.09 123.185 155.09H121.929C121.823 155.09 121.738 155.182 121.738 155.295V155.938C121.738 156.051 121.823 156.142 121.929 156.142Z" fill="#282C34"/>
<path d="M118.651 156.142H119.908C120.013 156.142 120.099 156.051 120.099 155.938V155.295C120.099 155.182 120.013 155.09 119.908 155.09H118.651C118.546 155.09 118.46 155.182 118.46 155.295V155.938C118.46 156.051 118.546 156.142 118.651 156.142Z" fill="#282C34"/>
<path d="M115.374 156.142H116.63C116.736 156.142 116.821 156.051 116.821 155.938V155.295C116.821 155.182 116.736 155.09 116.63 155.09H115.374C115.268 155.09 115.183 155.182 115.183 155.295V155.938C115.183 156.051 115.268 156.142 115.374 156.142Z" fill="#282C34"/>
<path d="M112.096 156.142H113.353C113.458 156.142 113.544 156.051 113.544 155.938V155.295C113.544 155.182 113.458 155.09 113.353 155.09H112.096C111.991 155.09 111.905 155.182 111.905 155.295V155.938C111.905 156.051 111.991 156.142 112.096 156.142Z" fill="#282C34"/>
<path d="M108.819 156.142H110.075C110.181 156.142 110.266 156.051 110.266 155.938V155.295C110.266 155.182 110.181 155.09 110.075 155.09H108.819C108.713 155.09 108.628 155.182 108.628 155.295V155.938C108.628 156.051 108.713 156.142 108.819 156.142Z" fill="#282C34"/>
<path d="M105.541 156.142H106.798C106.903 156.142 106.989 156.051 106.989 155.938V155.295C106.989 155.182 106.903 155.09 106.798 155.09H105.541C105.436 155.09 105.35 155.182 105.35 155.295V155.938C105.35 156.051 105.436 156.142 105.541 156.142Z" fill="#282C34"/>
<path d="M102.264 156.142H103.52C103.626 156.142 103.711 156.051 103.711 155.938V155.295C103.711 155.182 103.626 155.09 103.52 155.09H102.264C102.158 155.09 102.073 155.182 102.073 155.295V155.938C102.073 156.051 102.158 156.142 102.264 156.142Z" fill="#282C34"/>
<path d="M124.223 158.246H136.951C137.056 158.246 137.142 158.154 137.142 158.042V157.398C137.142 157.285 137.056 157.194 136.951 157.194H124.223C124.117 157.194 124.032 157.285 124.032 157.398V158.042C124.032 158.154 124.117 158.246 124.223 158.246Z" fill="#282C34"/>
</g>
<defs>
<clipPath id="clip0_208_371">
<rect width="326" height="265" fill="white"/>
</clipPath>
</defs>
</svg>
